<?xml version="1.0" encoding="UTF-8"?>
<svg width="490px" height="451px" viewBox="0 0 490 451" version="1.1" xmlns="http://www.w3.org/2000/svg" xmlns:xlink="http://www.w3.org/1999/xlink">
    <!-- Generator: Sketch 43 (38999) - http://www.bohemiancoding.com/sketch -->
    <title>BAY</title>
    <desc>Created with Sketch.</desc>
    <defs></defs>
    <g id="Page-1" stroke="none" stroke-width="1" fill="none" fill-rule="evenodd" stroke-linejoin="round">
        <g id="BAY" transform="translate(1.000000, 1.000000)" stroke="#000000">
            <g id="context">
                <polygon id="Shape" points="488 335 481 332 479 332 475 336 465 337 456 332 448 331 441 328 437 328 432 330 432 329 426 328 426 337 425 340 422 340 418 346 418 350 409 350 407 352 400 353 395 352 393 347 387 344 386 344 386 345 386 353 383 357 376 354 375 355 374 365 371 368 357 376 354 379 352 383 360 393 360 397 358 402 363 402 364 405 363 414 356 411 355 408 351 405 344 407 339 405 333 404 333 409 317 412 312 414 302 421 291 423 287 418 287 417 282 417 279 415 273 416 269 425 264 430 262 430 261 425 258 424 257 420 246 415 243 418 239 417 238 418 239 419 242 421 241 425 239 431 239 432 240 436 240 437 241 442 241 443 242 443 251 445 252 449 266 449 269 446 271 447 272 449 296 449 297 447 301 445 311 443 320 443 327 440 334 437 333 442 334 445 338 449 459 449 461 447 466 446 473 447 473 440 475 437 477 436 482 430 485 428 488 428 488 420 487 416 488 413 486 408 488 406 488 394 484 392 488 388"></polygon>
                <polygon id="Shape" points="105 245 110 244 112 247 108 247 115 247 115 248 119 251 123 255 121 258 126 263 127 270 121 275 119 280 119 281 118 280 114 278 110 282 106 291 105 297 107 300 110 306 108 310 107 311 104 311 97 312 89 303 78 297 75 297 75 290 73 288 76 279 73 278 70 280 69 285 65 287 59 288 52 287 53 282 51 277 53 272 48 268 39 266 37 267 36 267 35 260 30 257 24 256 22 248 21 244 18 242 12 244 6 242 4 239 1 233 2 231 0 223 15 215 24 211 28 210 31 217 36 216 39 216 44 220 46 220 51 218 55 215 57 211 60 213 67 207 71 210 75 207 81 211 84 208 86 215 90 218 93 219 100 219 103 223 110 227 107 234 107 237 104 241 105 246"></polygon>
                <path d="M241,443 L238,443 L237,443 L237,441 L237,437 L239,431 L241,425 L242,421 L239,419 L238,418 L232,414 L226,411 L213,409 L209,409 L205,406 L202,406 L199,408 L200,412 L203,412 L203,413 L198,415 L191,414 L187,416 L181,417 L173,417 L170,415 L165,418 L163,423 L155,424 L152,421 L150,421 L146,423 L144,426 L147,428 L146,433 L136,443 L135,445 L128,449 L252,449 L251,445 L242,443 L241,443 Z M272,449 L271,447 L269,446 L266,449 L272,449 Z" id="Shape"></path>
                <polygon id="Shape" points="410 230 410 231 409 232 404 231 404 227 399 223 392 222 391 224 396 228 380 238 374 241 368 243 367 247 359 249 357 253 352 255 350 259 344 258 336 261 333 263 328 273 323 266 321 268 326 277 328 280 337 287 333 296 340 304 343 310 349 317 353 316 357 320 361 325 373 335 376 334 385 341 386 344 387 344 393 347 395 352 400 353 407 352 409 350 418 350 418 346 422 340 425 340 426 337 426 328 432 329 432 330 437 328 441 328 448 331 456 332 465 337 475 336 479 332 481 332 488 335 488 245 482 246 487 254 480 259 479 262 475 262 470 256 465 251 461 249 460 248 462 244 464 243 461 235 454 237 432 231 430 231 426 227 425 223 416 221 416 228 413 229"></polygon>
                <path d="M370,64 L363,60 L366,66 L367,73 L371,73 L374,72 L376,72 L375,70 L375,68 L370,64 Z M283,50 L281,46 L276,44 L274,48 L278,50 L283,50 Z M358,47 L354,45 L354,41 L356,39 L355,37 L350,35 L347,31 L345,31 L342,34 L342,51 L348,55 L349,54 L351,50 L354,49 L358,52 L358,47 Z M199,37 L199,35 L194,36 L193,37 L199,37 Z M202,33 L211,46 L211,50 L207,52 L201,54 L201,59 L208,59 L209,61 L210,75 L215,80 L220,80 L223,82 L233,95 L238,98 L234,97 L232,95 L223,84 L219,82 L210,83 L201,81 L198,86 L197,92 L199,98 L197,107 L197,101 L192,96 L189,104 L188,105 L185,103 L187,99 L182,91 L170,91 L159,92 L157,93 L153,98 L152,108 L155,111 L156,113 L156,118 L153,134 L150,148 L142,147 L140,153 L140,155 L150,159 L151,161 L150,167 L149,170 L143,175 L141,176 L140,179 L143,182 L141,186 L133,189 L126,189 L122,187 L115,191 L115,193 L122,208 L121,215 L118,222 L120,226 L114,231 L111,231 L112,235 L114,235 L117,239 L115,247 L115,248 L119,251 L123,255 L121,258 L126,263 L127,270 L121,275 L119,280 L119,281 L118,282 L118,285 L123,294 L131,300 L131,303 L127,308 L126,313 L126,316 L127,316 L130,317 L132,319 L135,325 L139,332 L148,331 L149,334 L155,335 L164,333 L166,336 L169,337 L183,340 L188,342 L188,347 L177,360 L176,365 L175,372 L173,379 L170,385 L169,390 L169,394 L169,399 L167,406 L167,411 L168,415 L170,415 L173,417 L181,417 L187,416 L191,414 L198,415 L203,413 L203,412 L200,412 L199,408 L202,406 L205,406 L209,409 L213,409 L226,411 L232,414 L238,418 L239,417 L243,418 L246,415 L257,420 L258,424 L261,425 L262,430 L264,430 L269,425 L273,416 L279,415 L282,417 L287,417 L287,418 L291,423 L302,421 L312,414 L317,412 L333,409 L333,404 L339,405 L344,407 L351,405 L355,408 L356,411 L363,414 L364,405 L363,402 L358,402 L360,397 L360,393 L352,383 L354,379 L357,376 L371,368 L374,365 L375,355 L376,354 L383,357 L386,353 L386,345 L386,344 L385,341 L376,334 L373,335 L361,325 L357,320 L353,316 L349,317 L343,310 L340,304 L333,296 L337,287 L328,280 L326,277 L321,268 L323,266 L328,273 L333,263 L336,261 L344,258 L350,259 L352,255 L357,253 L359,249 L367,247 L368,243 L374,241 L380,238 L396,228 L391,224 L392,222 L399,223 L404,227 L404,231 L409,232 L410,231 L410,230 L410,229 L413,222 L414,217 L415,208 L410,198 L404,195 L404,189 L399,182 L398,179 L400,175 L402,165 L400,164 L399,157 L394,151 L395,142 L391,136 L382,130 L378,125 L384,112 L385,103 L380,89 L378,80 L378,80 L370,78 L365,74 L363,66 L359,59 L351,60 L341,53 L337,47 L322,45 L314,55 L311,58 L309,62 L299,63 L297,65 L290,74 L288,75 L278,72 L273,73 L271,72 L269,69 L275,63 L276,57 L275,52 L266,56 L254,50 L250,52 L247,48 L239,49 L244,43 L243,38 L239,32 L235,31 L234,30 L231,29 L222,32 L220,31 L217,30 L209,27 L202,27 L202,33 Z M191,33 L192,30 L199,29 L200,27 L193,27 L192,26 L195,19 L193,19 L190,27 L190,34 L191,33 Z" id="Shape"></path>
                <path d="M284,25 L280,22 L274,22 L274,31 L287,38 L291,36 L294,37 L297,35 L293,27 L289,28 L284,25 Z M257,28 L250,23 L253,28 L257,28 Z M320,18 L315,15 L312,15 L307,22 L309,23 L314,19 L320,18 Z M244,27 L242,21 L237,18 L236,26 L241,27 L244,27 Z M265,33 L270,16 L270,11 L268,17 L265,22 L263,25 L264,33 L265,33 Z M384,0 L384,6 L390,9 L396,10 L398,5 L397,2 L393,0 L384,0 Z M237,0 L239,9 L241,12 L250,16 L255,18 L261,17 L266,13 L266,9 L265,5 L266,3 L265,0 L237,0 Z M277,0 L277,2 L281,8 L286,7 L292,8 L295,20 L295,23 L299,30 L305,27 L305,14 L305,8 L312,5 L314,2 L314,0 L277,0 Z M202,27 L209,27 L217,30 L220,31 L222,32 L231,29 L234,30 L233,25 L234,23 L229,19 L225,19 L227,15 L231,10 L232,7 L230,0 L200,0 L201,4 L201,13 L198,15 L201,22 L202,27 Z" id="Shape"></path>
                <polygon id="Shape" points="170 415 168 415 167 411 167 406 169 399 169 394 169 390 170 385 173 379 175 372 176 365 177 360 188 347 188 342 183 340 169 337 166 336 164 333 155 335 149 334 148 331 139 332 135 325 132 319 130 317 127 316 126 316 123 315 118 314 116 316 108 313 107 311 104 311 97 312 89 303 78 297 75 297 75 290 73 288 76 279 73 278 70 280 69 285 65 287 59 288 52 287 53 282 51 277 53 272 48 268 39 266 38 266 38 449 128 449 135 445 136 443 146 433 147 428 144 426 146 423 150 421 152 421 155 424 163 423 165 418"></polygon>
                <path d="M477,436 L484,436 L486,440 L487,443 L488,444 L488,428 L485,428 L482,430 L477,436 Z M488,406 L486,408 L488,413 L487,416 L488,420 L488,406 Z M488,388 L484,392 L488,394 L488,388 Z" id="Shape"></path>
                <polygon id="Shape" points="338 449 334 445 333 442 334 437 327 440 320 443 311 443 301 445 297 447 296 449"></polygon>
                <polygon id="Shape" points="241 442 240 437 240 436 239 432 239 431 237 437 237 441 237 443 238 443 241 443"></polygon>
                <polygon id="Shape" points="118 280 114 278 110 282 106 291 105 297 107 300 110 306 108 310 107 311 108 313 116 316 118 314 123 315 126 316 126 313 127 308 131 303 131 300 123 294 118 285 118 282 119 281"></polygon>
                <path d="M39,216 L44,220 L46,220 L51,218 L55,215 L57,211 L53,213 L50,210 L46,212 L38,210 L38,216 L39,216 Z M49,192 L44,192 L42,195 L45,194 L49,198 L53,197 L49,192 Z M82,123 L83,117 L78,122 L79,126 L82,123 Z M90,110 L87,110 L84,114 L90,110 Z M57,211 L60,213 L67,207 L71,210 L75,207 L81,211 L84,208 L86,215 L90,218 L93,219 L100,219 L103,223 L110,227 L107,234 L107,237 L104,241 L105,246 L105,246 L107,246 L108,247 L115,247 L117,239 L114,235 L112,235 L111,231 L114,231 L120,226 L118,222 L121,215 L122,208 L115,193 L115,191 L122,187 L126,189 L133,189 L141,186 L143,182 L140,179 L141,176 L143,175 L149,170 L150,167 L151,161 L150,159 L140,155 L140,153 L142,147 L150,148 L153,134 L156,118 L156,113 L152,112 L149,111 L144,105 L136,105 L129,106 L120,106 L114,108 L103,113 L100,116 L97,122 L88,129 L82,131 L78,130 L75,136 L71,156 L68,163 L64,169 L58,176 L54,179 L49,188 L55,196 L56,199 L50,200 L58,205 L59,207 L55,208 L46,201 L42,199 L38,199 L38,207 L44,209 L50,208 L54,210 L57,211 Z M113,151 L113,155 L111,158 L101,167 L95,165 L86,162 L85,160 L86,158 L87,157 L87,156 L87,152 L87,150 L87,147 L90,147 L93,144 L93,141 L91,138 L89,136 L89,133 L88,131 L94,126 L98,124 L99,125 L99,132 L99,134 L100,135 L103,135 L107,135 L107,137 L106,139 L105,140 L105,144 L105,145 L106,147 L112,148 L113,151 Z M97,107 L105,104 L100,104 L93,106 L97,107 Z M116,103 L114,102 L109,102 L110,104 L116,103 Z M129,101 L128,100 L124,102 L129,101 Z M142,97 L144,95 L139,97 L142,97 Z" id="Shape"></path>
                <polygon id="Shape" points="375 68 375 70 376 72 380 73 387 74 389 83 385 82 378 80 380 89 385 103 384 112 378 125 382 130 391 136 395 142 394 151 399 157 400 164 402 165 400 175 398 179 399 182 404 189 404 195 410 198 415 208 414 217 413 222 410 229 410 230 413 229 416 228 416 221 425 223 426 227 430 231 432 231 454 237 461 235 464 243 462 244 460 248 461 249 465 251 470 256 475 262 479 262 480 259 487 254 482 246 488 245 488 7 481 9 464 16 457 21 454 25 444 28 439 35 434 44 426 47 408 55 391 63 381 69 377 69"></polygon>
                <polygon id="Shape" points="477 436 475 437 473 440 473 447 466 446 461 447 459 449 488 449 488 444 487 443 486 440 484 436"></polygon>
            </g>
            <g id="regions" transform="translate(216.000000, 256.000000)">
                <polygon id="Shape" points="36 3 36 3 34 7 26 9 26 14 23 16 15 26 12 23 4 24 0 28 2 28 2 36 3 39 4 39 6 45 5 53 5 53 5 54 10 53 12 50 16 49 15 46 14 47 12 45 12 43 18 41 23 43 24 47 28 45 32 51 30 54 33 54 34 57 37 58 39 55 40 58 40 65 41 67 42 71 46 77 45 78 53 87 52 88 53 91 52 96 54 97 53 98 47 100 49 105 46 109 40 111 38 117 40 122 42 128 43 130 42 138 43 146 42 147 43 151 43 153 39 153 30 157 23 162 25 162 28 162 32 158 33 161 37 161 39 164 40 163 42 166 42 170 45 169 47 170 45 175 49 174 51 172 55 167 54 158 58 161 61 159 70 160 71 161 70 162 74 165 74 167 79 167 81 165 85 166 86 164 89 163 88 162 90 160 95 160 98 155 104 156 105 154 108 154 117 153 118 150 117 149 125 148 128 151 135 149 140 152 139 155 143 157 147 159 148 157 149 148 148 148 142 145 144 137 143 135 135 126 140 120 142 120 145 117 149 115 153 114 158 109 159 99 161 98 165 99 168 101 171 91 170 90 170 87 163 80 162 79 159 78 158 80 154 75 150 71 148 71 140 63 140 62 133 61 130 58 127 56 121 43 119 42 120 35 120 35 117 26 111 24 107 15 105 14 105 10 106 10 102 8 101 7 100 5 99 5 98 6 88 7 86 8 83 5 82 1 80 1 77 4 77 13 73 12 74 11 71 10 68 10 64 8 61 9 59 12 63 15 63 16 59 16 59 18 56 17 55 13 53 10 49 8 48 9 42 3 41 1 38 0"></polygon>
            </g>
        </g>
    </g>
</svg>