<?xml version="1.0" encoding="UTF-8"?>
<svg width="490px" height="451px" viewBox="0 0 490 451" version="1.1" xmlns="http://www.w3.org/2000/svg" xmlns:xlink="http://www.w3.org/1999/xlink">
    <!-- Generator: Sketch 43 (38999) - http://www.bohemiancoding.com/sketch -->
    <title>DEU</title>
    <desc>Created with Sketch.</desc>
    <defs></defs>
    <g id="Page-1" stroke="none" stroke-width="1" fill="none" fill-rule="evenodd" stroke-linejoin="round">
        <g id="DEU" transform="translate(1.000000, 1.000000)" stroke="#000000">
            <g id="context">
                <polygon id="Shape" points="488 335 481 332 479 332 475 336 465 337 456 332 448 331 441 328 437 328 432 330 432 329 426 328 426 337 425 340 422 340 418 346 418 350 409 350 407 352 400 353 395 352 393 347 387 344 386 344 386 345 386 353 383 357 376 354 375 355 374 365 371 368 357 376 354 379 352 383 360 393 360 397 358 402 363 402 364 405 363 414 356 411 355 408 351 405 344 407 339 405 333 404 333 409 317 412 312 414 302 421 291 423 287 418 287 417 282 417 279 415 273 416 269 425 264 430 262 430 261 425 258 424 257 420 246 415 243 418 239 417 238 418 239 419 242 421 241 425 239 431 239 432 240 436 240 437 241 442 241 443 242 443 251 445 252 449 266 449 269 446 271 447 272 449 296 449 297 447 301 445 311 443 320 443 327 440 334 437 333 442 334 445 338 449 459 449 461 447 466 446 473 447 473 440 475 437 477 436 482 430 485 428 488 428 488 420 487 416 488 413 486 408 488 406 488 394 484 392 488 388"></polygon>
                <polygon id="Shape" points="105 245 110 244 112 247 108 247 115 247 115 248 119 251 123 255 121 258 126 263 127 270 121 275 119 280 119 281 118 280 114 278 110 282 106 291 105 297 107 300 110 306 108 310 107 311 104 311 97 312 89 303 78 297 75 297 75 290 73 288 76 279 73 278 70 280 69 285 65 287 59 288 52 287 53 282 51 277 53 272 48 268 39 266 37 267 36 267 35 260 30 257 24 256 22 248 21 244 18 242 12 244 6 242 4 239 1 233 2 231 0 223 15 215 24 211 28 210 31 217 36 216 39 216 44 220 46 220 51 218 55 215 57 211 60 213 67 207 71 210 75 207 81 211 84 208 86 215 90 218 93 219 100 219 103 223 110 227 107 234 107 237 104 241 105 246"></polygon>
                <path d="M241,443 L238,443 L237,443 L237,441 L237,437 L239,431 L241,425 L242,421 L239,419 L238,418 L232,414 L226,411 L213,409 L209,409 L205,406 L202,406 L199,408 L200,412 L203,412 L203,413 L198,415 L191,414 L187,416 L181,417 L173,417 L170,415 L165,418 L163,423 L155,424 L152,421 L150,421 L146,423 L144,426 L147,428 L146,433 L136,443 L135,445 L128,449 L252,449 L251,445 L242,443 L241,443 Z M272,449 L271,447 L269,446 L266,449 L272,449 Z" id="Shape"></path>
                <polygon id="Shape" points="410 230 410 231 409 232 404 231 404 227 399 223 392 222 391 224 396 228 380 238 374 241 368 243 367 247 359 249 357 253 352 255 350 259 344 258 336 261 333 263 328 273 323 266 321 268 326 277 328 280 337 287 333 296 340 304 343 310 349 317 353 316 357 320 361 325 373 335 376 334 385 341 386 344 387 344 393 347 395 352 400 353 407 352 409 350 418 350 418 346 422 340 425 340 426 337 426 328 432 329 432 330 437 328 441 328 448 331 456 332 465 337 475 336 479 332 481 332 488 335 488 245 482 246 487 254 480 259 479 262 475 262 470 256 465 251 461 249 460 248 462 244 464 243 461 235 454 237 432 231 430 231 426 227 425 223 416 221 416 228 413 229"></polygon>
                <path d="M370,64 L363,60 L366,66 L367,73 L371,73 L374,72 L376,72 L375,70 L375,68 L370,64 Z M283,50 L281,46 L276,44 L274,48 L278,50 L283,50 Z M358,47 L354,45 L354,41 L356,39 L355,37 L350,35 L347,31 L345,31 L342,34 L342,51 L348,55 L349,54 L351,50 L354,49 L358,52 L358,47 Z M199,37 L199,35 L194,36 L193,37 L199,37 Z M202,33 L211,46 L211,50 L207,52 L201,54 L201,59 L208,59 L209,61 L210,75 L215,80 L220,80 L223,82 L233,95 L238,98 L234,97 L232,95 L223,84 L219,82 L210,83 L201,81 L198,86 L197,92 L199,98 L197,107 L197,101 L192,96 L189,104 L188,105 L185,103 L187,99 L182,91 L170,91 L159,92 L157,93 L153,98 L152,108 L155,111 L156,113 L156,118 L153,134 L150,148 L142,147 L140,153 L140,155 L150,159 L151,161 L150,167 L149,170 L143,175 L141,176 L140,179 L143,182 L141,186 L133,189 L126,189 L122,187 L115,191 L115,193 L122,208 L121,215 L118,222 L120,226 L114,231 L111,231 L112,235 L114,235 L117,239 L115,247 L115,248 L119,251 L123,255 L121,258 L126,263 L127,270 L121,275 L119,280 L119,281 L118,282 L118,285 L123,294 L131,300 L131,303 L127,308 L126,313 L126,316 L127,316 L130,317 L132,319 L135,325 L139,332 L148,331 L149,334 L155,335 L164,333 L166,336 L169,337 L183,340 L188,342 L188,347 L177,360 L176,365 L175,372 L173,379 L170,385 L169,390 L169,394 L169,399 L167,406 L167,411 L168,415 L170,415 L173,417 L181,417 L187,416 L191,414 L198,415 L203,413 L203,412 L200,412 L199,408 L202,406 L205,406 L209,409 L213,409 L226,411 L232,414 L238,418 L239,417 L243,418 L246,415 L257,420 L258,424 L261,425 L262,430 L264,430 L269,425 L273,416 L279,415 L282,417 L287,417 L287,418 L291,423 L302,421 L312,414 L317,412 L333,409 L333,404 L339,405 L344,407 L351,405 L355,408 L356,411 L363,414 L364,405 L363,402 L358,402 L360,397 L360,393 L352,383 L354,379 L357,376 L371,368 L374,365 L375,355 L376,354 L383,357 L386,353 L386,345 L386,344 L385,341 L376,334 L373,335 L361,325 L357,320 L353,316 L349,317 L343,310 L340,304 L333,296 L337,287 L328,280 L326,277 L321,268 L323,266 L328,273 L333,263 L336,261 L344,258 L350,259 L352,255 L357,253 L359,249 L367,247 L368,243 L374,241 L380,238 L396,228 L391,224 L392,222 L399,223 L404,227 L404,231 L409,232 L410,231 L410,230 L410,229 L413,222 L414,217 L415,208 L410,198 L404,195 L404,189 L399,182 L398,179 L400,175 L402,165 L400,164 L399,157 L394,151 L395,142 L391,136 L382,130 L378,125 L384,112 L385,103 L380,89 L378,80 L378,80 L370,78 L365,74 L363,66 L359,59 L351,60 L341,53 L337,47 L322,45 L314,55 L311,58 L309,62 L299,63 L297,65 L290,74 L288,75 L278,72 L273,73 L271,72 L269,69 L275,63 L276,57 L275,52 L266,56 L254,50 L250,52 L247,48 L239,49 L244,43 L243,38 L239,32 L235,31 L234,30 L231,29 L222,32 L220,31 L217,30 L209,27 L202,27 L202,33 Z M191,33 L192,30 L199,29 L200,27 L193,27 L192,26 L195,19 L193,19 L190,27 L190,34 L191,33 Z" id="Shape"></path>
                <path d="M284,25 L280,22 L274,22 L274,31 L287,38 L291,36 L294,37 L297,35 L293,27 L289,28 L284,25 Z M257,28 L250,23 L253,28 L257,28 Z M320,18 L315,15 L312,15 L307,22 L309,23 L314,19 L320,18 Z M244,27 L242,21 L237,18 L236,26 L241,27 L244,27 Z M265,33 L270,16 L270,11 L268,17 L265,22 L263,25 L264,33 L265,33 Z M384,0 L384,6 L390,9 L396,10 L398,5 L397,2 L393,0 L384,0 Z M237,0 L239,9 L241,12 L250,16 L255,18 L261,17 L266,13 L266,9 L265,5 L266,3 L265,0 L237,0 Z M277,0 L277,2 L281,8 L286,7 L292,8 L295,20 L295,23 L299,30 L305,27 L305,14 L305,8 L312,5 L314,2 L314,0 L277,0 Z M202,27 L209,27 L217,30 L220,31 L222,32 L231,29 L234,30 L233,25 L234,23 L229,19 L225,19 L227,15 L231,10 L232,7 L230,0 L200,0 L201,4 L201,13 L198,15 L201,22 L202,27 Z" id="Shape"></path>
                <polygon id="Shape" points="170 415 168 415 167 411 167 406 169 399 169 394 169 390 170 385 173 379 175 372 176 365 177 360 188 347 188 342 183 340 169 337 166 336 164 333 155 335 149 334 148 331 139 332 135 325 132 319 130 317 127 316 126 316 123 315 118 314 116 316 108 313 107 311 104 311 97 312 89 303 78 297 75 297 75 290 73 288 76 279 73 278 70 280 69 285 65 287 59 288 52 287 53 282 51 277 53 272 48 268 39 266 38 266 38 449 128 449 135 445 136 443 146 433 147 428 144 426 146 423 150 421 152 421 155 424 163 423 165 418"></polygon>
                <path d="M477,436 L484,436 L486,440 L487,443 L488,444 L488,428 L485,428 L482,430 L477,436 Z M488,406 L486,408 L488,413 L487,416 L488,420 L488,406 Z M488,388 L484,392 L488,394 L488,388 Z" id="Shape"></path>
                <polygon id="Shape" points="338 449 334 445 333 442 334 437 327 440 320 443 311 443 301 445 297 447 296 449"></polygon>
                <polygon id="Shape" points="241 442 240 437 240 436 239 432 239 431 237 437 237 441 237 443 238 443 241 443"></polygon>
                <polygon id="Shape" points="118 280 114 278 110 282 106 291 105 297 107 300 110 306 108 310 107 311 108 313 116 316 118 314 123 315 126 316 126 313 127 308 131 303 131 300 123 294 118 285 118 282 119 281"></polygon>
                <path d="M39,216 L44,220 L46,220 L51,218 L55,215 L57,211 L53,213 L50,210 L46,212 L38,210 L38,216 L39,216 Z M49,192 L44,192 L42,195 L45,194 L49,198 L53,197 L49,192 Z M82,123 L83,117 L78,122 L79,126 L82,123 Z M90,110 L87,110 L84,114 L90,110 Z M57,211 L60,213 L67,207 L71,210 L75,207 L81,211 L84,208 L86,215 L90,218 L93,219 L100,219 L103,223 L110,227 L107,234 L107,237 L104,241 L105,246 L105,246 L107,246 L108,247 L115,247 L117,239 L114,235 L112,235 L111,231 L114,231 L120,226 L118,222 L121,215 L122,208 L115,193 L115,191 L122,187 L126,189 L133,189 L141,186 L143,182 L140,179 L141,176 L143,175 L149,170 L150,167 L151,161 L150,159 L140,155 L140,153 L142,147 L150,148 L153,134 L156,118 L156,113 L152,112 L149,111 L144,105 L136,105 L129,106 L120,106 L114,108 L103,113 L100,116 L97,122 L88,129 L82,131 L78,130 L75,136 L71,156 L68,163 L64,169 L58,176 L54,179 L49,188 L55,196 L56,199 L50,200 L58,205 L59,207 L55,208 L46,201 L42,199 L38,199 L38,207 L44,209 L50,208 L54,210 L57,211 Z M113,151 L113,155 L111,158 L101,167 L95,165 L86,162 L85,160 L86,158 L87,157 L87,156 L87,152 L87,150 L87,147 L90,147 L93,144 L93,141 L91,138 L89,136 L89,133 L88,131 L94,126 L98,124 L99,125 L99,132 L99,134 L100,135 L103,135 L107,135 L107,137 L106,139 L105,140 L105,144 L105,145 L106,147 L112,148 L113,151 Z M97,107 L105,104 L100,104 L93,106 L97,107 Z M116,103 L114,102 L109,102 L110,104 L116,103 Z M129,101 L128,100 L124,102 L129,101 Z M142,97 L144,95 L139,97 L142,97 Z" id="Shape"></path>
                <polygon id="Shape" points="375 68 375 70 376 72 380 73 387 74 389 83 385 82 378 80 380 89 385 103 384 112 378 125 382 130 391 136 395 142 394 151 399 157 400 164 402 165 400 175 398 179 399 182 404 189 404 195 410 198 415 208 414 217 413 222 410 229 410 230 413 229 416 228 416 221 425 223 426 227 430 231 432 231 454 237 461 235 464 243 462 244 460 248 461 249 465 251 470 256 475 262 479 262 480 259 487 254 482 246 488 245 488 7 481 9 464 16 457 21 454 25 444 28 439 35 434 44 426 47 408 55 391 63 381 69 377 69"></polygon>
                <polygon id="Shape" points="477 436 475 437 473 440 473 447 466 446 461 447 459 449 488 449 488 444 487 443 486 440 484 436"></polygon>
            </g>
            <g id="regions" transform="translate(111.000000, 18.000000)">
                <polygon id="Shape" points="39 151 33 157 30 158 28 161 32 164 30 168 23 170 17 172 9 169 10 170 5 172 6 180 10 187 12 193 10 199 8 202 7 207 9 208 4 212 2 214 1 213 0 215 2 217 4 218 6 223 4 228 8 232 10 236 12 237 9 240 11 243 15 244 16 247 15 250 16 252 16 252 23 249 28 251 31 250 29 246 34 243 36 240 45 236 47 237 51 232 56 231 63 225 63 222 66 222 75 232 76 233 76 232 77 230 76 228 79 225 84 223 90 215 89 211 93 211 95 210 96 203 95 202 90 202 94 197 99 196 102 195 102 194 103 190 106 190 110 192 111 192 116 184 118 182 119 181 117 182 117 177 119 174 119 170 114 170 115 168 113 166 113 164 109 163 110 162 108 156 104 156 106 150 103 149 104 145 105 145 108 141 106 136 104 137 100 142 94 142 94 137 92 135 86 137 86 139 81 139 82 142 85 144 86 145 86 152 87 153 84 157 80 156 75 160 72 160 68 158 72 154 68 152 69 147 70 147 61 141 61 139 57 140 56 143 47 149 42 149"></polygon>
                <polygon id="Shape" points="110 291 110 292 110 295 104 296 105 298 102 301 100 301 101 296 97 293 95 290 91 294 87 291 86 292 86 293 87 298 89 299 89 307 85 311 85 316 79 325 78 326 75 333 73 334 65 343 66 348 63 354 63 358 61 363 59 366 57 373 59 376 55 391 58 398 60 397 61 400 69 399 74 399 79 396 83 396 87 398 91 396 93 397 93 393 91 394 88 390 89 388 93 386 96 387 98 392 100 390 108 393 113 393 118 394 128 399 128 400 135 395 144 391 148 391 148 389 147 385 148 384 147 376 148 368 147 366 145 360 143 355 145 349 151 347 154 343 152 338 158 336 159 335 157 334 158 329 157 326 158 325 150 316 151 315 147 309 146 305 145 303 145 296 144 293 142 296 139 295 138 292 135 292 137 289 133 283 129 285 128 281 123 279 117 281 117 283 119 285 120 284 121 287 117 288 115 291 110 292"></polygon>
                <polygon id="Shape" points="135 194 133 195 131 194 128 196 130 198 127 199 123 197 126 194 125 186 127 185 126 183 119 181 119 181 118 182 116 184 111 192 110 192 106 190 103 190 102 194 102 195 99 196 94 197 90 202 95 202 96 203 95 210 93 211 89 211 90 215 84 223 79 225 76 228 77 230 76 232 76 233 76 234 74 241 72 242 72 245 71 248 73 249 75 253 75 255 73 255 68 260 69 264 64 267 68 271 69 271 73 268 78 267 79 267 83 271 84 277 86 282 88 282 84 287 86 290 86 292 87 291 91 294 95 290 97 293 101 296 100 301 102 301 105 298 104 296 110 295 110 292 110 291 110 291 111 283 109 277 108 277 107 274 107 266 105 266 109 262 117 261 120 264 128 254 131 252 131 247 139 245 141 241 141 241 141 241 141 234 139 232 137 235 135 235 137 225 139 224 140 221 138 219 140 218 140 215 143 215 144 212 143 212 144 209 142 208 145 206 142 204 140 203 139 200 137 200 135 195 136 195"></polygon>
                <path d="M89,99 L87,99 L93,106 L93,107 L96,107 L100,108 L102,107 L102,102 L99,102 L89,99 Z M87,78 L88,81 L88,81 L88,82 L88,82 L91,82 L90,79 L87,77 L87,78 Z" id="Shape"></path>
                <path d="M31,79 L29,78 L29,80 L31,79 Z M50,72 L45,72 L48,72 L50,72 Z M52,71 L52,72 L53,71 L52,71 Z M76,71 L74,72 L75,72 L76,71 Z M64,69 L62,68 L62,70 L64,69 Z M87,77 L90,79 L91,82 L88,82 L88,83 L88,81 L80,77 L78,79 L81,83 L79,88 L75,86 L73,86 L73,83 L76,82 L69,72 L55,74 L54,73 L49,74 L42,79 L43,82 L43,83 L41,92 L49,92 L47,93 L44,102 L45,110 L41,118 L40,121 L39,130 L31,129 L28,136 L29,139 L36,140 L38,139 L40,142 L39,150 L39,151 L42,149 L47,149 L56,143 L57,140 L61,139 L61,141 L70,147 L69,147 L68,152 L72,154 L68,158 L72,160 L75,160 L80,156 L84,157 L87,153 L86,152 L86,145 L85,144 L82,142 L81,139 L86,139 L86,137 L92,135 L94,137 L94,142 L100,142 L104,137 L106,136 L108,141 L105,145 L104,145 L103,149 L106,150 L104,156 L108,156 L110,162 L109,163 L113,164 L113,166 L115,168 L114,170 L119,170 L119,174 L117,177 L117,182 L119,181 L119,181 L126,183 L127,185 L125,186 L126,194 L123,197 L127,199 L130,198 L128,196 L131,194 L133,195 L135,194 L136,195 L138,193 L142,192 L150,183 L154,185 L159,184 L159,181 L160,180 L159,179 L159,176 L156,173 L156,169 L158,167 L158,164 L155,161 L171,153 L171,147 L169,145 L170,141 L166,136 L168,134 L164,126 L159,119 L160,116 L162,116 L167,113 L172,112 L175,114 L183,110 L183,107 L185,106 L185,104 L183,104 L181,103 L180,102 L178,104 L177,103 L177,103 L177,103 L176,102 L175,100 L171,98 L167,99 L164,96 L156,88 L155,88 L153,88 L152,89 L151,88 L146,86 L145,85 L144,85 L143,86 L140,87 L136,85 L134,86 L128,85 L126,80 L124,80 L118,74 L117,73 L115,70 L110,64 L105,64 L102,65 L97,66 L92,63 L88,66 L86,72 L87,77 L87,77 Z M87,99 L89,99 L99,102 L102,102 L102,107 L100,108 L96,107 L93,107 L93,106 L87,99 Z" id="Shape"></path>
                <polygon id="Shape" points="214 207 214 211 213 215 205 214 200 211 197 212 193 207 186 208 185 204 182 202 186 198 183 194 177 192 170 192 169 186 167 184 168 182 161 181 160 180 159 181 159 184 154 185 150 183 142 192 138 193 136 195 135 195 137 200 139 200 140 203 142 204 145 206 142 208 144 209 143 212 144 212 143 215 140 215 140 218 138 219 140 221 139 224 137 225 135 235 137 235 139 232 141 234 141 241 141 241 143 238 146 239 147 241 153 247 154 246 158 248 160 251 161 255 164 256 164 254 168 254 168 253 164 250 166 247 169 246 173 248 176 248 179 249 178 250 182 251 182 242 185 239 187 239 188 243 191 246 193 245 203 244 204 243 203 243 204 239 206 236 207 236 211 235 217 228 215 228 215 223 218 220 222 218 226 217 225 213 223 212 221 208 216 207"></polygon>
                <polygon id="Shape" points="144 85 139 81 140 73 138 71 136 71 135 73 131 75 125 79 127 79 128 79 128 80 128 80 126 80 128 85 134 86 136 85 140 87 143 86"></polygon>
                <path d="M98,32 L96,29 L95,30 L98,32 Z M171,29 L169,27 L165,26 L163,30 L166,30 L166,32 L169,32 L173,32 L171,29 Z M91,30 L92,27 L89,30 L91,30 Z M81,19 L79,21 L82,23 L80,20 L81,19 Z M88,20 L87,17 L83,18 L85,20 L88,20 Z M125,79 L131,75 L135,73 L136,71 L138,71 L140,73 L139,81 L144,85 L144,85 L145,85 L146,86 L151,88 L152,89 L153,88 L153,88 L155,84 L160,80 L161,78 L164,78 L163,71 L157,68 L157,62 L161,59 L161,57 L161,57 L157,54 L157,52 L158,50 L159,50 L166,45 L166,35 L167,34 L161,34 L156,38 L151,36 L139,34 L137,38 L138,31 L128,31 L132,28 L133,21 L131,15 L126,15 L125,14 L119,12 L118,10 L115,13 L98,9 L90,11 L90,12 L92,18 L94,20 L96,24 L101,30 L98,34 L94,35 L90,37 L92,37 L89,39 L93,41 L100,41 L97,43 L96,49 L97,50 L100,49 L102,51 L102,55 L96,55 L99,60 L109,62 L114,65 L119,76 L124,79 L125,79 Z M82,9 L82,4 L84,1 L83,0 L81,2 L79,8 L79,17 L80,11 L84,11 L82,9 Z" id="Shape"></path>
                <polygon id="Shape" points="16 252 9 257 9 260 8 261 7 266 9 272 11 275 16 279 20 280 20 285 15 294 15 294 24 294 27 293 37 289 40 290 47 292 46 300 50 306 47 310 50 314 51 314 55 318 63 321 64 320 70 321 75 324 79 325 79 325 85 316 85 311 89 307 89 299 87 298 86 293 86 292 86 290 84 287 88 282 86 282 84 277 83 271 79 267 78 267 73 268 69 271 68 271 64 267 69 264 68 260 73 255 75 255 75 253 73 249 71 248 72 245 72 242 74 241 76 234 76 233 75 232 66 222 63 222 63 225 56 231 51 232 47 237 45 236 36 240 34 243 29 246 31 250 28 251 23 249"></polygon>
                <polygon id="Shape" points="15 296 15 298 17 298 20 299 23 303 28 314 31 315 32 314 38 313 39 317 47 317 50 314 50 314 47 310 50 306 46 300 47 292 40 290 37 289 27 293 24 294 15 294"></polygon>
                <polygon id="Shape" points="248 121 239 123 239 125 237 128 237 130 236 135 238 135 251 134 254 137 256 132 254 129 253 129 253 126 250 125"></polygon>
                <polygon id="Shape" points="239 176 241 172 240 168 243 164 232 162 231 162 223 158 222 159 214 156 213 155 208 149 209 135 208 130 205 131 205 126 206 125 206 117 207 116 206 113 196 111 193 110 191 107 189 107 186 104 185 104 185 106 183 107 183 110 175 114 172 112 167 113 162 116 160 116 159 119 164 126 168 134 166 136 170 141 169 145 171 147 171 153 155 161 158 164 158 167 156 169 156 173 159 176 159 179 160 180 161 181 168 182 167 184 169 186 170 192 177 192 183 194 186 198 182 202 185 204 186 208 193 207 197 212 200 211 205 214 213 215 214 211 214 207 214 207 212 207 209 198 210 194 210 183 211 182 217 181 218 179 225 179 229 177 232 174 233 175 237 177 238 177"></polygon>
                <polygon id="Shape" points="214 207 216 207 221 208 223 212 225 213 226 217 222 218 218 220 215 223 215 228 217 228 211 235 207 236 206 236 204 239 203 243 204 243 205 243 206 245 207 246 211 248 212 248 214 251 216 251 218 256 221 247 223 246 224 243 231 242 234 240 239 241 242 236 247 234 248 231 250 231 253 228 254 230 256 228 260 223 267 222 269 219 273 217 279 214 280 213 284 212 285 211 282 208 280 207 282 204 284 205 287 203 291 210 293 210 293 212 299 213 299 211 302 204 304 197 303 188 301 182 299 179 293 177 292 176 289 175 286 176 280 179 276 178 273 180 271 184 268 188 262 189 257 189 250 186 244 188 243 183 238 177 238 177 237 177 233 175 232 174 229 177 225 179 218 179 217 181 211 182 210 183 210 194 209 198 212 207"></polygon>
                <path d="M195,91 L195,91 L193,94 L190,94 L187,93 L183,96 L183,100 L179,100 L179,101 L175,101 L176,102 L177,103 L177,103 L177,103 L178,104 L180,102 L181,103 L183,104 L185,104 L186,104 L189,107 L191,107 L193,110 L196,111 L206,113 L207,116 L206,117 L206,125 L205,126 L205,131 L208,130 L209,135 L208,149 L213,155 L214,156 L222,159 L223,158 L231,162 L232,162 L243,164 L240,168 L241,172 L239,176 L238,177 L238,177 L243,183 L244,188 L250,186 L257,189 L262,189 L268,188 L271,184 L273,180 L276,178 L280,179 L286,176 L289,175 L292,176 L292,176 L292,169 L287,163 L287,160 L290,155 L291,148 L289,146 L289,139 L284,137 L282,130 L284,128 L285,121 L282,119 L280,118 L276,114 L270,110 L267,109 L268,107 L267,103 L272,99 L274,93 L273,91 L275,86 L273,83 L273,82 L269,87 L264,85 L268,81 L264,78 L263,79 L258,79 L256,74 L253,74 L251,77 L246,82 L245,85 L242,88 L239,88 L236,91 L234,90 L230,95 L224,94 L214,90 L211,91 L208,88 L205,87 L204,86 L199,87 L196,91 L195,91 Z M248,121 L250,125 L253,126 L253,129 L254,129 L256,132 L254,137 L251,134 L238,135 L236,135 L237,130 L237,128 L239,125 L239,123 L248,121 Z" id="Shape"></path>
                <path d="M181,51 L183,48 L180,49 L181,51 Z M257,44 L250,39 L251,45 L250,47 L253,46 L253,48 L256,45 L259,47 L259,50 L255,50 L256,52 L254,55 L256,56 L260,55 L264,54 L264,52 L257,44 Z M161,57 L161,59 L157,62 L157,68 L163,71 L164,78 L161,78 L160,80 L155,84 L153,88 L153,88 L155,88 L156,88 L164,96 L167,99 L171,98 L175,100 L175,101 L179,101 L179,100 L181,100 L183,100 L183,96 L187,93 L190,94 L193,94 L195,91 L196,91 L199,87 L204,86 L205,87 L208,88 L211,91 L214,90 L224,94 L230,95 L234,90 L236,91 L239,88 L242,88 L245,85 L246,82 L251,77 L253,74 L256,74 L258,79 L263,79 L264,78 L268,81 L264,85 L269,87 L273,82 L272,79 L271,76 L269,72 L269,69 L266,63 L267,61 L266,60 L265,61 L260,61 L254,57 L252,56 L255,51 L250,47 L251,43 L247,41 L248,40 L241,45 L238,40 L236,40 L234,38 L231,36 L228,33 L227,30 L225,28 L224,28 L220,32 L217,31 L216,30 L209,34 L207,38 L206,38 L208,31 L212,31 L222,28 L212,28 L209,27 L207,31 L203,38 L196,43 L189,45 L184,46 L182,51 L179,54 L179,59 L175,56 L172,57 L172,55 L169,53 L166,54 L162,57 L161,57 Z M229,19 L227,18 L228,21 L229,19 Z M236,15 L236,13 L231,15 L233,16 L232,20 L235,17 L238,20 L240,19 L240,24 L237,23 L235,19 L229,21 L230,23 L231,23 L231,27 L233,30 L230,30 L229,32 L234,36 L236,35 L236,37 L238,35 L249,30 L242,25 L242,24 L245,20 L242,18 L237,19 L236,15 Z" id="Shape"></path>
            </g>
        </g>
    </g>
</svg>