<?xml version="1.0" encoding="UTF-8"?>
<svg width="454px" height="367px" viewBox="0 0 454 367" version="1.1" xmlns="http://www.w3.org/2000/svg" xmlns:xlink="http://www.w3.org/1999/xlink">
    <!-- Generator: Sketch 43 (38999) - http://www.bohemiancoding.com/sketch -->
    <title>EU</title>
    <desc>Created with Sketch.</desc>
    <defs></defs>
    <g id="Page-1" stroke="none" stroke-width="1" fill="none" fill-rule="evenodd" stroke-linejoin="round">
        <g id="EU" transform="translate(1.000000, 1.000000)" stroke="#BBBBBB" fill="#EEEEEE">
            <polygon id="Shape" points="245.5 271 243.3 270.6 242.7 270.5 240.9 278 241.8 278.1 241.9 288.5 242.5 291.6 247.1 297.7 247.2 298.6 250 297.5 249.4 296.1 251.8 294.3 253.7 290.4 253.5 287.7 253.5 287 253.5 286.8 249.2 280.8 249.7 277.4 249.8 277.3 249.9 276.9 249.2 274.4 247.9 273.2 246 271.2 245.7 271"></polygon>
            <polygon id="Shape" points="113.8 265.9 113.9 265.1 113 264.7 112.2 264.7 111.9 264.9 111.8 265.3 112.8 266.4 113.6 266.1 113.8 266.1"></polygon>
            <polygon id="Shape" points="423 239.3 422.8 239.5 418.1 242.3 413.4 245.2 413.1 245.5 413.4 245.8 420.3 254 422.6 252.9 426.6 254.2 427 254.5 427.7 254.1 428.6 253.2 432.5 254.4 434.5 252.9 438.7 257.4 439.2 258 439.6 257.9 440.5 257.1 441.7 256.6 441.3 255.7 437.2 251.2 432.2 249.5 427.7 243.5 428.6 242 424.1 240.8 423.3 239.7"></polygon>
            <polygon id="Shape" points="220.9 213.2 220.6 212.4 208.2 210 206.6 213 202.3 213.7 201 212.2 200.8 212.1 200.7 212.3 198.7 213.9 195.5 224.7 190.2 222.3 184.2 224.9 182.1 225.1 178.8 223.5 177.1 226 172.7 223.3 172.5 223.4 172.7 223.5 173.1 224 173 224.7 172.4 225.8 172.4 226 172.5 226.7 172.6 227 172.7 227.8 172.6 227.9 172.9 228 176.5 230.1 177.7 228.9 178.4 229.8 178.3 230.1 178.5 230.2 182.4 230.4 189.8 228.4 191.2 232.2 198.6 233.7 200 234 200.3 234.1 210.2 232.8 213.8 232.1 215.6 230.7 216 230.5 217 229.4 218.1 225.5 222.2 219.6 222.6 219.1 222.1 218.8 220.6 215.5 220.5 215 221 213.5 221.1 213.4"></polygon>
            <path d="M427,254.5 L427.2,254.7 L427.6,254.9 L427.8,255 L434.4,258.8 L437.8,258.3 L439.2,258 L438.7,257.4 L434.5,252.9 L432.5,254.4 L428.6,253.2 L427.7,254.1 L427,254.5 Z M444.2,223.3 L442.1,231.3 L437.8,232.2 L432.5,229.3 L430.9,229.4 L430.2,229.6 L430.1,230 L430.1,232.7 L434,234.3 L433.9,236.6 L429.5,237.5 L425.3,236.8 L423.9,237.5 L423,239.3 L423.3,239.7 L424.1,240.8 L428.6,242 L427.7,243.5 L432.2,249.5 L437.2,251.2 L441.3,255.7 L441.7,256.6 L442.2,256.4 L449,244.7 L452,246 L452,228.6 L446.7,224.4 L445.1,223.5 L444.2,223.3 Z" id="Shape"></path>
            <polygon id="Shape" points="150.9 189.6 151.7 189.4 152.1 190 151.5 189.9 152.7 190.1 152.7 190.3 154 191.8 152.8 196.1 152.8 196.3 152.7 196.3 151.2 196.5 150 199.1 150.3 201.6 150.1 201.7 149.6 201.7 144.3 196.9 145 195.3 140.5 196.4 135.9 190.4 132 183.9 134.9 182.7 136.6 182.1 137.4 182 141.4 183.8 147.6 182.5 148.5 184.4 152.1 186.4 150.9 189.7"></polygon>
            <polygon id="Shape" points="262.8 252.8 262.6 253 262.6 260.5 263.7 261 264.2 265.9 262.6 266.5 262.8 271.6 262.2 271.8 263.5 273.1 267.6 277 267.4 278.1 267.5 280.6 267.4 280.8 268.2 280.8 277.9 277.6 280.9 278.8 285.4 279.1 290.7 277 290.7 273.5 291.6 273.6 291.5 273.4 295.8 269.9 299.5 270 303.3 269.1 303 268.4 298.7 265 300.3 262.3 300.7 257.5 301.8 255.2 304.6 253.6 304.3 251.3 300.5 251.2 299 249.8 291.6 249.6 289.2 250.6 283 255.7 266.8 255.9 264.7 256.6 263.3 253.2"></polygon>
            <polygon id="Shape" points="234 271.7 234.1 271.7 233.8 267.8 236.5 263.9 238.6 261.9 238.8 261.9 239.2 261.4 241.2 256.8 237.8 252.7 236.9 249 236.6 249 236.2 249.1 234.1 247.1 222.1 245.8 216.9 248 214.3 247 214 251 216.7 253.3 217.5 256.3 229.5 269.2 233.3 271.5"></polygon>
            <polygon id="Shape" points="278.3 132.7 274.6 136.8 273.2 136.8 271.1 138.7 271 138.8 271.1 139.2 272.1 143.2 267.9 147.6 267.5 152.8 263.6 156.8 256.8 158.3 256.3 158.1 257.4 161.3 259.8 166.7 260.1 170.2 256.8 174.6 259.4 175.8 259.6 180.6 260.1 181.5 260.2 181.4 268.3 176.3 280.9 175.9 281.9 177.1 290 176.3 292.5 175 294.4 176.7 299.3 175 302.1 175.9 301.6 171.1 306.2 167 307.3 166.8 307.2 166.6 302.8 156.9 306.6 157 309.3 152.7 303.6 150.7 301.8 147.9 299.5 146.6 297.7 143.4 295.6 142.6 294.4 135 289.2 133.5 286.5 135.6 285.4 133.3 279.4 133.4 278.5 132.7"></polygon>
            <polygon id="Shape" points="171.4 222.6 167.4 221.3 164.7 222 160.5 222.1 160 221.8 159.2 222.2 155.4 224.6 151.5 228.5 148.6 234.9 152.1 232.4 154.6 237.3 154.7 237.7 154.9 237.9 159.8 238.2 163.2 234.3 164.6 233.8 166.9 237.2 171.3 234 174.3 234.8 178 231.4 178.3 230.1 178.4 229.8 177.7 228.9 176.5 230.1 172.9 228 172.6 227.9 172.1 227.9 172 227.9 172 227.5 172 226.8 172.4 225.8 173 224.7 173.1 224 172.7 223.5 172.5 223.4"></polygon>
            <polygon id="Shape" points="360.6 324.4 363.2 318.8 360.9 321 356.5 323.5 352.4 324 351.5 326.5 351 326.5 356.6 325.4 358.8 326.1 361.3 325"></polygon>
            <polygon id="Shape" points="350.5 326.5 348.8 328.3 350.3 331.3 351.9 331.5 361.5 325.1 361.3 325 358.8 326.1 356.6 325.4 351 326.5"></polygon>
            <polygon id="Shape" points="206.9 191.8 203.7 190 203.2 191.7 197.3 194.4 195.4 196.1 193 196.2 191.2 198.2 194.5 206.6 200.5 211.7 200.8 212.1 201 212.2 202.3 213.7 206.6 213 208.2 210 220.6 212.4 220.9 213.2 221.1 213.4 221.2 212.6 226.6 209.9 228.1 208.5 232.4 203.9 232.6 203.9 232.6 203.6 230.4 200.2 227.7 199.5 224.2 197 220.5 195.7 219.1 198.7 214.8 193.8 209.9 191.4 207.5 191.7 207 191.7"></polygon>
            <path d="M202.2,160.7 L201,159.8 L202.3,162.4 L203,162.3 L203.2,162.3 L203.1,161.8 L203.2,161.5 L202.2,160.7 Z M197.943124,209.526655 L197.824561,209.487135 L197.643275,209.849708 L196.918129,208.943275 L196.192982,208.218129 L195.830409,208.218129 L194.380117,206.767836 L194.380117,206.58655 L193.111111,206.405263 L192.567251,205.861404 L192.023392,205.49883 L190.935673,203.142105 L190.573099,202.960819 L190.754386,201.691813 L190.210526,200.060234 L189.122807,199.697661 L188.397661,198.066082 L188.035088,197.884795 L188.035088,197.159649 L188.216374,197.159649 L187.491228,196.797076 L187.309942,196.615789 L187.128655,196.253216 L186.947368,196.253216 L186.766082,196.434503 L184.953216,196.615789 L184.590643,196.797076 L184.046784,196.253216 L183.865497,195.52807 L183.502924,195.52807 L182.959064,196.07193 L182.959064,197.703509 L182.233918,197.522222 L182.415205,197.340936 L181.871345,197.159649 L181.327485,197.159649 L180.602339,196.797076 L180.05848,196.978363 L179.695906,197.522222 L180.421053,198.066082 L180.421053,198.247368 L179.695906,198.247368 L179.695906,198.609942 L179.152047,198.428655 L178.97076,197.703509 L178.608187,197.159649 L177.883041,196.797076 L177.701754,196.978363 L176.614035,195.890643 L176.432749,195.52807 L175.888889,195.346784 L175.526316,195.890643 L175.163743,196.615789 L173.71345,196.978363 L173.71345,197.884795 L173.169591,198.247368 L171.719298,200.060234 L171.175439,199.516374 L169.725146,199.697661 L169,200.422807 L169.362573,200.422807 L169.362573,201.873099 L169.54386,202.416959 L169.725146,202.416959 L170.087719,203.504678 L169.906433,204.954971 L169.906433,205.136257 L170.812865,204.954971 L171.175439,204.411111 L171.900585,204.229825 L171.719298,203.685965 L171.538012,203.867251 L171.175439,203.504678 L171.175439,203.142105 L172.263158,202.779532 L173.169591,203.142105 L173.350877,203.867251 L174.076023,203.504678 L174.80117,204.592398 L174.438596,205.136257 L174.982456,205.136257 L175.163743,205.680117 L175.707602,205.861404 L176.070175,205.317544 L176.251462,205.861404 L176.251462,207.130409 L176.432749,207.492982 L176.614035,208.218129 L177.339181,209.305848 L177.157895,209.487135 L178.608187,211.118713 L178.426901,211.3 L178.608187,211.84386 L178.426901,212.750292 L178.789474,212.931579 L178.608187,213.112865 L177.520468,213.475439 L177.883041,214.381871 L177.339181,215.107018 L176.251462,215.469591 L175.888889,216.55731 L176.251462,217.463743 L176.614035,218.551462 L176.795322,218.914035 L176.614035,220.364327 L176.795322,221.81462 L176.614035,221.995906 L176.795322,222.721053 L176.795322,223.083626 L176.070175,223.083626 L174.438596,223.808772 L174.01832,224.108969 L172.7,223.3 L172.5,223.4 L171.4,222.6 L167.4,221.3 L164.7,222 L160.5,222.1 L160,221.8 L159.7,221.6 L164.4,209.5 L160.2,206.5 L155.7,206 L153.8,202.9 L153.5,202.9 L153.6,202.4 L152.6,197.1 L152.7,196.6 L152.8,196.3 L152.8,196.1 L154,191.8 L152.7,190.3 L152.7,190.1 L153.2,188.6 L152.3,187.8 L154.7,183.1 L153.5,180.2 L158.4,179.3 L160.4,174.5 L158.7,173.6 L161,171.4 L162.4,166.2 L162.1,165.8 L163.2,162.4 L170.3,163.1 L171.1,161.1 L175.1,162 L172.8,160 L173,157.5 L171.4,156.5 L173.4,155.5 L172.1,152.2 L172.1,151.2 L173.4,151.3 L174.9,151.9 L178,152.3 L178.1,152.5 L178.6,155.8 L180.1,155.7 L185.3,158 L187.1,161.3 L193.9,156.4 L196.5,157 L203.4,163.7 L203.5,163.7 L203.5,172.9 L206.5,179.8 L205.6,182.2 L208.2,187.8 L207,191.6 L207,191.7 L206.9,191.8 L203.7,190 L203.2,191.7 L197.3,194.4 L195.4,196.1 L193,196.2 L191.2,198.2 L194.5,206.6 L197.943124,209.526655 Z M199.818713,211.120906 L200.5,211.7 L200.8,212.1 L200.7,212.3 L199.598892,213.180886 L200,211.84386 L199.818713,211.662573 L199.818713,211.120906 Z M199.209569,213.492344 L198.7,213.9 L195.870214,223.450526 L196.011696,222.177193 L195.830409,222.177193 L194.74269,221.633333 L195.105263,220.183041 L194.923977,219.820468 L193.473684,218.188889 L194.380117,217.10117 L194.74269,217.10117 L195.28655,216.55731 L196.011696,216.194737 L196.736842,216.01345 L197.643275,215.107018 L197.824561,213.294152 L198.187135,213.112865 L198.912281,213.294152 L199.209569,213.492344 Z M195.66757,224.13445 L195.5,224.7 L190.303483,222.34686 L191.660819,222.177193 L192.204678,222.721053 L193.473684,222.35848 L194.380117,222.902339 L194.19883,223.446199 L194.923977,223.808772 L195.649123,224.171345 L195.66757,224.13445 Z M187.335802,223.541152 L186.48892,223.908134 L186.766082,223.446199 L187.335802,223.541152 Z M185.463158,224.352632 L185.203096,224.465325 L185.315789,224.352632 L185.463158,224.352632 Z M182.1915,225.091286 L182.1,225.1 L180.222159,224.189532 L181.690058,224.352632 L181.871345,224.533918 L181.690058,224.715205 L182.1915,225.091286 Z M176.614035,225.701794 L174.429775,224.361453 L174.80117,223.990058 L174.982456,224.533918 L175.707602,224.533918 L176.070175,225.077778 L176.251462,224.896491 L176.614035,225.440351 L176.614035,225.701794 Z" id="Shape"></path>
            <polygon id="Shape" points="175.526316 195.890643 175.163743 196.615789 173.71345 196.978363 173.71345 197.884795 173.169591 198.247368 171.719298 200.060234 171.175439 199.516374 169.725146 199.697661 169 200.422807 169.362573 200.422807 169.362573 201.873099 169.54386 202.416959 169.725146 202.416959 170.087719 203.504678 169.906433 204.954971 169.906433 205.136257 170.812865 204.954971 171.175439 204.411111 171.900585 204.229825 171.719298 203.685965 171.538012 203.867251 171.175439 203.504678 171.175439 203.142105 172.263158 202.779532 173.169591 203.142105 173.350877 203.867251 174.076023 203.504678 174.80117 204.592398 174.438596 205.136257 174.982456 205.136257 175.163743 205.680117 175.707602 205.861404 176.070175 205.317544 176.251462 205.861404 176.251462 207.130409 176.432749 207.492982 176.614035 208.218129 177.339181 209.305848 177.157895 209.487135 178.608187 211.118713 178.426901 211.3 178.608187 211.84386 178.426901 212.750292 178.789474 212.931579 178.608187 213.112865 177.520468 213.475439 177.883041 214.381871 177.339181 215.107018 176.251462 215.469591 175.888889 216.55731 176.251462 217.463743 176.614035 218.551462 176.795322 218.914035 176.614035 220.364327 176.795322 221.81462 176.614035 221.995906 176.795322 222.721053 176.795322 223.083626 176.070175 223.083626 174.438596 223.808772 173.169591 224.715205 173.532164 224.715205 174.076023 224.715205 174.80117 223.990058 174.982456 224.533918 175.707602 224.533918 176.070175 225.077778 176.251462 224.896491 176.614035 225.440351 176.614035 226.165497 177.157895 225.984211 177.520468 226.165497 177.157895 227.07193 177.883041 226.890643 178.245614 226.52807 178.97076 225.621637 178.789474 223.990058 179.51462 224.533918 180.05848 224.171345 181.690058 224.352632 181.871345 224.533918 181.690058 224.715205 182.415205 225.259064 182.415205 225.621637 183.321637 225.621637 183.684211 225.259064 184.409357 225.440351 184.590643 225.077778 185.134503 224.896491 184.953216 224.715205 185.315789 224.352632 186.222222 224.352632 186.766082 223.446199 187.853801 223.627485 188.035088 223.264912 188.578947 223.264912 190.210526 223.083626 190.391813 222.539766 190.210526 222.35848 191.660819 222.177193 192.204678 222.721053 193.473684 222.35848 194.380117 222.902339 194.19883 223.446199 194.923977 223.808772 195.649123 224.171345 195.830409 223.808772 196.011696 222.177193 195.830409 222.177193 194.74269 221.633333 195.105263 220.183041 194.923977 219.820468 193.473684 218.188889 194.380117 217.10117 194.74269 217.10117 195.28655 216.55731 196.011696 216.194737 196.736842 216.01345 197.643275 215.107018 197.824561 213.294152 198.187135 213.112865 198.912281 213.294152 199.45614 213.656725 200 211.84386 199.818713 211.662573 199.818713 211.118713 198.549708 209.849708 198.368421 209.668421 197.824561 209.487135 197.643275 209.849708 196.918129 208.943275 196.192982 208.218129 195.830409 208.218129 194.380117 206.767836 194.380117 206.58655 193.111111 206.405263 192.567251 205.861404 192.023392 205.49883 190.935673 203.142105 190.573099 202.960819 190.754386 201.691813 190.210526 200.060234 189.122807 199.697661 188.397661 198.066082 188.035088 197.884795 188.035088 197.159649 188.216374 197.159649 187.491228 196.797076 187.309942 196.615789 187.128655 196.253216 186.947368 196.253216 186.766082 196.434503 184.953216 196.615789 184.590643 196.797076 184.046784 196.253216 183.865497 195.52807 183.502924 195.52807 182.959064 196.07193 182.959064 197.703509 182.233918 197.522222 182.415205 197.340936 181.871345 197.159649 181.327485 197.159649 180.602339 196.797076 180.05848 196.978363 179.695906 197.522222 180.421053 198.066082 180.421053 198.247368 179.695906 198.247368 179.695906 198.609942 179.152047 198.428655 178.97076 197.703509 178.608187 197.159649 177.883041 196.797076 177.701754 196.978363 176.614035 195.890643 176.432749 195.52807 175.888889 195.346784"></polygon>
            <path d="M183.5,144.9 L179,147.2 L183.1,150.4 L184.1,149.6 L183.5,144.9 Z M194.1,143.6 L194.4,141.2 L188.1,142.5 L186.3,147.8 L188.9,149.3 L190,153.3 L191,153 L192.3,145.9 L194.1,143.6 Z M172.1,151.2 L173.4,151.3 L174.9,151.9 L178,152.3 L177.9,151.3 L177.6,145.8 L180,143.5 L179.5,142.5 L183.2,139.2 L185,136.1 L182,135 L182.3,131.3 L183.8,127 L180.8,125.6 L177.8,129.3 L173.5,129.7 L171.3,133 L174,133.5 L176.8,130.9 L173.6,135.2 L170.6,134.4 L169.7,144.2 L170.8,145.1 L172.1,150.3 L172.1,151.2 Z" id="Shape"></path>
            <polygon id="Shape" points="155.9 325.8 148.8 323.5 149 324.7 143.8 323.9 143.2 323 139.7 324.8 137 325.2 129.5 323.4 121.9 322.4 119.8 323.1 112.3 324 110.4 323.6 99.5 323.5 92.5 326 91.5 327.4 87.7 327.1 83.5 328.3 73.9 332.1 72.4 331.6 74.5 339.3 73.6 349.5 75.4 361.8 53.8 361.3 52.6 365.4 154.3 365.4 148.8 355.1 149.5 352.4 154.4 348.5 156.2 343.6 156.1 336.6 157.3 331.2 156.3 329.9 159.4 325.8"></polygon>
            <path d="M371.4,360.9 L370.9,360.2 L370.7,360 L370.6,360.2 L366.8,362.9 L364.4,363.5 L358.9,365.4 L374.1,365.4 L373.4,364.2 L372.5,362.8 L371.4,360.9 Z M353,365.4 L352.1,362.8 L343.1,365.4 L353,365.4 Z" id="Shape"></path>
            <path d="M120.5,293.9 L117.9,292.8 L114.5,294.7 L120.8,297.9 L122.8,294.5 L120.5,293.9 Z M39,254.1 L43.4,253.5 L44.9,256.6 L51.1,257.6 L55.1,263.8 L49.5,266.8 L49.7,268.1 L46.7,274.8 L47,276.9 L44.9,278.9 L42.5,278.3 L43.2,284 L42.8,287 L40.3,290.1 L40.4,294.7 L37,298 L36.8,302 L38.6,302.2 L43.1,306.1 L44.2,312.6 L46.4,315.6 L50.4,315.2 L54,313.4 L56,313.9 L58.8,312.4 L70.9,315.3 L77.8,314.4 L79.4,311.9 L83.5,309.5 L88.3,309.8 L92.2,302.5 L94.9,301.5 L96.8,299.5 L95.5,298.6 L96.8,289.1 L100.7,285.5 L104.1,281.1 L108.1,279 L116.6,276.8 L122,274.6 L124.5,269.1 L124.4,268.4 L119.7,268.6 L118.4,267.9 L114.8,266.7 L113.8,266.1 L113.6,266.1 L112.8,266.4 L111.8,265.3 L111.9,264.9 L111.5,263.9 L100.1,260.5 L98,260.3 L93.4,256.5 L90.7,252.8 L90.5,252.8 L86.8,252.7 L82,251.2 L76.5,248.6 L71.9,248.4 L63.4,243.8 L56.1,242.4 L42.1,240.8 L39.6,241.7 L40.4,248.2 L38.4,254.1 L39,254.1 Z" id="Shape"></path>
            <path d="M245.8,113.4 L243.3,119.8 L245.6,117.2 L249.6,114.6 L245.8,113.4 Z M247.1,111.2 L246.8,109.6 L242.6,110.6 L245.3,112.8 L247.1,111.2 Z M255.5,119.5 L259.2,117 L263,118.4 L271.5,120.3 L271.6,120.2 L271.6,120 L272.1,117.4 L269.7,108.6 L272,101.8 L271.1,100.8 L271.1,101 L267.9,101.8 L258.7,101.6 L258.5,102.7 L251.9,105.2 L249.4,107.3 L250.6,113.2 L255.1,114.5 L255.5,119.1 L255.5,119.5 Z" id="Shape"></path>
            <polygon id="Shape" points="225.4 14 226.4 14.4 235.7 21.5 236.2 21.5 239 31.5 240.6 33.8 240.1 38.1 242.8 43.3 243.1 43.2 247.6 45.1 248.3 49 246 52.7 245.3 55.6 238.6 68.3 235.3 69.7 234.2 73.8 237.3 88.3 236.9 90.5 239.5 94.8 243.4 96.6 244.2 99.8 245.2 97.9 246.3 101.6 248.2 99.7 252.4 98.5 260 94.4 259.4 93.2 267.8 91.1 268 91 273.2 82.4 278.3 70.9 277.2 62.3 271.2 58.9 269.8 52.4 266.2 46.5 265.1 37 260 29.9 259.7 28.8 261.5 22.6 260.5 20.8 255.4 17.6 254.3 9.7 254.5 9.5 254.1 9.2 254.7 5 253.6 3.3 248.5 0.5 243.8 4.2 243 6.2 243.2 12.7 241.3 16.3 237.6 14.8 234.5 16.4 228.6 11.4 225.5 13.6"></polygon>
            <path d="M169.6,269.3 L163.9,271.4 L162.7,274.6 L164.6,281.6 L167.2,282.3 L169.8,275.6 L169.6,269.3 Z M131.5,184.2 L128.1,184.4 L125,191.2 L115.4,194.9 L112.5,198.4 L106.2,194.1 L102.7,192.5 L103.2,203.1 L99.6,202.9 L96.9,201.7 L95.1,202.4 L92.4,198.7 L82.5,199.3 L84,203.4 L82,203.7 L83.9,207 L84.9,206.9 L91.4,210.9 L92.9,211.2 L93.8,214.4 L97.2,215.1 L95.6,218.7 L99.1,225.1 L100.6,225.8 L99.3,231.8 L99.6,233.4 L96.9,241.5 L98,241.5 L93.2,251.7 L91.9,252.7 L90.7,252.8 L93.4,256.5 L98,260.3 L100.1,260.5 L111.5,263.9 L111.9,264.9 L112.2,264.7 L113,264.7 L113.9,265.1 L113.8,265.9 L113.8,266.1 L114.8,266.7 L118.4,267.9 L119.7,268.6 L124.4,268.4 L124.3,268.1 L123.7,264.3 L125.7,261.1 L131.8,258 L136.2,260.7 L138.7,261.1 L145.8,264.8 L149.1,263.9 L154.4,259.5 L155.3,259.2 L155.6,258.8 L155.7,259 L155.7,259.1 L156.1,258.9 L157.2,255.1 L155.6,255.4 L152.9,253.6 L151.3,245.7 L154.9,242.6 L153.1,238.6 L154.1,238.2 L154.7,237.7 L154.6,237.3 L152.1,232.4 L148.6,234.9 L151.5,228.5 L155.4,224.6 L159.2,222.2 L160,221.8 L159.7,221.6 L164.4,209.5 L160.2,206.5 L155.7,206 L153.8,202.9 L153.5,202.9 L153.1,202.7 L152.1,202.5 L151.8,202.7 L150.3,202.1 L150.1,201.7 L149.6,201.7 L144.3,196.9 L145,195.3 L140.5,196.4 L135.9,190.4 L132,183.9 L131.5,184.2 Z" id="Shape"></path>
            <polygon id="Shape" points="372 359.9 371.9 359.3 372.5 356.9 371.9 358 370.7 360 370.9 360.2 371.4 360.9"></polygon>
            <path d="M85.4,133.3 L80.5,135.8 L79.2,137.3 L79.4,140.4 L85.7,142.7 L87.9,144.3 L88.4,144.7 L92.3,142.6 L93.1,140.3 L91.5,133.8 L89.7,133 L85.5,133.7 L85.4,133.3 Z M97.8,112.2 L94.5,112.2 L97.2,116.7 L99.2,115.8 L97.6,114.4 L97.8,112.2 Z M100,104.1 L94.9,104.9 L97.9,107 L100,104.1 Z M115.5,106.7 L116.1,105.7 L103,108 L103.7,109.8 L100.2,111.3 L100,115.6 L96.3,121 L100.4,120.7 L98.9,122.6 L97.3,127.9 L100.4,128.9 L96.6,137.6 L96.2,139.7 L99,140.5 L105.3,140 L103.5,143.6 L104.2,147.2 L106.6,148.3 L104,154.3 L105.3,156.7 L97.4,155.7 L93.1,158.8 L96.7,158.6 L94.5,164.5 L87.5,166.7 L88.9,169.6 L93.7,170.5 L93.4,171.4 L97.8,174.3 L91,176.3 L84.4,181.2 L81.4,182.1 L83.7,184.4 L92.8,184.7 L94.7,182 L98.6,181.2 L103.6,183.5 L107.9,181.5 L111.4,183.5 L120.5,184.1 L125.1,182.2 L125.7,180.3 L121.4,179.3 L120.6,178.2 L123.7,175.5 L125.7,175.5 L128.2,172.8 L129.7,168.9 L129.5,167.1 L125.7,164.5 L123.5,163.9 L121.6,165.2 L120.4,164 L122.7,161.9 L120,156 L121.8,155.9 L121.3,151.3 L119.5,147.8 L117.1,145.8 L116.4,139.6 L114.4,132.7 L112.3,131 L109.7,131.1 L109.4,129.8 L112.7,128.2 L112.4,126.4 L116,123.4 L119.9,118 L119.7,116.8 L110.9,114.2 L108.1,114.3 L115.4,107.5 L115.5,106.7 Z" id="Shape"></path>
            <polygon id="Shape" points="430 229.5 424.6 229.2 423.4 226.4 416.8 226.3 414.4 227.4 411.5 230.6 409.9 230.7 402.5 228.3 393.6 230.9 386.5 230.3 382.4 233 384.1 233.5 391.9 235.7 394.1 235.8 399.4 244.6 398.7 246.9 401.1 246.8 405.4 245.1 406.4 243.1 413.1 245.3 413.1 245.5 413.4 245.2 418.1 242.3 422.8 239.5 423 239.3 423.9 237.5 425.3 236.8 429.5 237.5 433.9 236.6 434 234.3 430.1 232.7 430.1 230 430.2 229.6"></polygon>
            <path d="M280.7,335.9 L278.4,336.2 L279.8,339 L288,339.3 L288.5,340.6 L299.7,338.3 L296,335.8 L293.8,336.4 L283.4,336.3 L280.7,335.9 Z M273.6,303.3 L270.8,304.5 L273.5,305.5 L276,308.1 L279,308.2 L280.6,310.7 L281.7,310.1 L274.2,304.3 L273.6,303.3 Z M295.7,296.5 L292,297.5 L297.2,299.6 L295.7,296.5 Z M291.6,273.6 L290.7,273.5 L290.7,277 L285.4,279.1 L280.9,278.8 L277.9,277.6 L268.2,280.8 L267.4,280.8 L267,280.8 L259.4,285.4 L254.5,286.8 L253.5,287 L253.5,287.7 L253.7,290.4 L251.8,294.3 L249.4,296.1 L250,297.5 L247.2,298.6 L248,299.2 L253.6,304.9 L257.2,311.1 L263.1,309.8 L272.7,311.5 L270.9,313.4 L263.1,310.7 L257.3,315.2 L261.8,320 L261.3,323 L264.1,326.1 L265.3,323.1 L271.5,325.8 L272.4,322.5 L271,319.9 L274,318.7 L274.9,316.6 L273.4,316.4 L271.9,314.1 L273,313.2 L277.2,313.4 L279.6,315.1 L279.2,310.6 L277.5,309 L267.5,304.7 L270,303.9 L269,300.9 L272.7,301.3 L266.3,293.6 L266.1,289.1 L271.7,292.5 L274.4,289.8 L278.7,290.1 L274.2,285.7 L277.7,284.9 L278.6,283.5 L283.8,282 L290.7,283.1 L291,283.5 L292.9,280.5 L292.4,278.2 L292.3,273.7 L291.6,273.6 Z" id="Shape"></path>
            <path d="M234.6,272.9 L234.3,272.5 L234,272.1 L234,271.7 L233.3,271.5 L229.5,269.2 L228.7,269.2 L225,267.6 L233.2,272.1 L234.6,272.9 Z M218.9,234 L218.3,233.8 L213.1,237.1 L213.1,240.6 L210.7,241.7 L210.5,244.5 L199.1,243.8 L198.7,244.2 L200.2,249 L201.8,250.5 L203.8,246.1 L205.8,246 L208.3,249.1 L208.8,252.7 L210.9,254.8 L210.3,256.9 L219,262.8 L222.6,264.2 L227.3,268.1 L217.5,256.3 L216.7,253.3 L214,251 L214.3,247 L216.9,248 L222.1,245.8 L234.1,247.1 L236.2,249.1 L236.6,249 L236.5,248.7 L238.2,244.9 L236.3,243.8 L235.3,238.9 L235.3,238.7 L235.3,238.7 L232.2,240.5 L227.9,240.5 L219.3,234.1 L218.9,234 Z" id="Shape"></path>
            <polygon id="Shape" points="254.5 212.9 252 213.7 244.9 212.3 243.1 215 240.4 216.8 234 218.1 233 220.7 226.7 221.2 222.7 219.1 222.6 219.1 222.2 219.6 218.1 225.5 217 229.4 216 230.5 217.2 230.5 217.6 231.8 218.8 233.8 218.9 234 219.3 234.1 227.9 240.5 232.2 240.5 235.3 238.7 235.3 238.7 235.5 238.7 236.9 238.1 238.9 236.9 244 236.2 244.2 236.3 244.5 236.1 249.5 234.5 253.6 225.3 254.6 221.6 259.8 217 259.9 216.7 259.7 216.6 257.3 214.5 256.1 214.1 255.2 212.7 254.6 212.8"></polygon>
            <polygon id="Shape" points="85.7 132.9 79.9 131 77.4 134 78.2 137.1 75.5 139 71.8 137.1 67.1 137 69 140.6 69.1 148.4 64.3 151.7 64.5 152.9 59 155.3 58.2 158.5 62.6 159.2 60.1 162.4 63.2 163.3 69.3 162.8 69.4 161.3 73.9 161.8 75.1 160.9 82.3 161.5 81.8 160.4 86.2 154 86.8 146.1 88.1 144.7 87.9 144.3 85.7 142.7 79.4 140.4 79.2 137.3 80.5 135.8 85.4 133.3"></polygon>
            <path d="M441.7,256.6 L440.5,257.1 L439.6,257.9 L439.2,258 L437.8,258.3 L434.4,258.8 L427.8,255 L427.6,254.9 L427.3,255 L425.6,254.5 L425.1,258.6 L423.1,259.5 L428.2,267.7 L429.6,268.2 L429.5,272.9 L430.3,272.7 L435.8,277.9 L435.9,278.1 L435.9,278.1 L444.4,286.5 L447.2,287.1 L450.5,285.8 L452,290.9 L452,248.9 L452,246.8 L452,246 L449,244.7 L442.2,256.4 L441.7,256.6 Z M452,293.1 L450.9,298.9 L449.8,299.3 L451.4,302.5 L452,293.1 Z" id="Shape"></path>
            <polygon id="Shape" points="435.9 278.1 435.5 278 428.9 280.1 420.6 282 419.3 285 418.7 285.4 418.7 285.6 416.1 291.8 413.6 293.6 415.8 301.9 415.8 305.5 417.1 310.1 414.6 315.9 404.3 327.9 402.4 329.9 403.6 331.8 406.9 337.4 409.4 339.1 408.6 340.6 410.4 340.4 434.6 342.2 436.7 343 452 348.5 451.4 302.5 449.8 299.3 450.9 298.9 452 293.1 452 290.9 450.5 285.8 447.2 287.1 444.4 286.5"></polygon>
            <polygon id="Shape" points="88.8 17.8 86.6 14.1 85.3 16.6 77.2 12.8 74 13.2 73.2 14.7 71.1 11.1 68.2 13.7 64.6 15.7 65.1 11.2 67.1 10.6 63.4 3.1 59.9 4.1 56.5 7.3 57.1 9.4 60 9.9 63 13.2 60.7 16.4 56 14.6 54.5 15.3 57.7 20.8 54.4 24.3 51.6 25.1 56.2 27.4 59.3 32.6 64.5 37 67.8 37.2 75.2 36.6 84.4 35.4 89.8 31.5 90.9 31.5 92.7 27.5 90.9 20.7"></polygon>
            <polygon id="Shape" points="380.6 355.7 380.2 355.8 376.5 358.1 376.6 353.2 375.1 350.4 375.3 347.3 378.8 347 379.4 346.9 379 344.7 379.2 344 380.1 343.3 380.5 343.1 380.5 342.7 380.3 339.6 380.5 339.1 379.5 337 379.5 336.4 379.3 336.6 377.3 340.2 376.7 340.8 374.3 341.4 374.3 342.5 373.8 350.4 373.4 353.5 372.5 356.8 372.5 356.9 371.9 359.3 372 359.9 371.4 360.9 372.5 362.8 373.4 364.2 374.1 365.4 380.4 365.4 381.2 359 380.8 358.3 380.7 357.2"></polygon>
            <path d="M214.2,314.7 L211.9,314.7 L204.2,316.8 L199.5,317 L192.2,315.1 L190,319.1 L190.5,320.1 L195.5,322 L200.4,325.4 L203.1,325.7 L206,328.6 L209.9,329.6 L212.2,326.5 L210.6,323 L211.6,319 L214.2,314.7 Z M169.7,288.1 L167.3,284.8 L161.8,287.9 L159.4,287.1 L158.9,288.4 L160.6,294.8 L159.6,303.7 L161.2,306.6 L164.1,305.6 L164.5,303.8 L168.8,302.9 L169.4,294 L170.8,291.9 L169.7,288.1 Z M178.3,230.1 L178,231.4 L174.3,234.8 L171.3,234 L166.9,237.2 L164.6,233.8 L163.2,234.3 L159.8,238.2 L154.9,237.9 L154.7,237.7 L154.1,238.2 L153.1,238.6 L154.9,242.6 L151.3,245.7 L152.9,253.6 L155.6,255.4 L157.2,255.1 L156.1,258.9 L157.8,258.7 L165.5,253.3 L169.1,254.5 L175.5,259.4 L177.1,268.1 L183.9,274.3 L192,283.2 L195.3,285.4 L197.3,285.1 L201,286.6 L202.6,289.8 L204.3,289.7 L208.2,291.4 L209.1,295.2 L214.7,297.5 L218.9,307.6 L218.8,309.4 L215.4,317.4 L217.9,317.3 L221.6,309.7 L224.5,307.4 L225.6,303.1 L221,298.6 L222,295.9 L224.6,292.1 L227.4,293.7 L230.9,294.1 L234.7,298.4 L235.4,294.4 L231.4,290.4 L220.8,285.3 L216,281.6 L217.8,278.9 L210.5,278.7 L205.9,275.7 L203.3,273.2 L199.8,264.6 L197,261.7 L192.8,258.6 L190.2,254.3 L189.8,251.4 L190.9,248.4 L190.2,244.4 L195.4,242.6 L196.6,241.3 L200.5,242.8 L200.1,243.1 L199.3,239.3 L197.9,236 L199.8,234.6 L200,234 L198.6,233.7 L191.2,232.2 L189.8,228.4 L182.4,230.4 L178.5,230.2 L178.3,230.1 Z" id="Shape"></path>
            <polygon id="Shape" points="408.6 340.6 409.4 339.1 406.9 337.4 403.6 331.8 402.4 329.9 400.8 331.9 389.7 344.7 386.8 345.1 381.4 343.1 380.5 343.1 380.1 343.3 379.2 344 379 344.7 379.4 346.9 379.9 348.3 380.1 350.8 380.8 352.8 380.5 354.9 380.6 355.7 380.7 357.2 380.8 358.3 381.2 359 380.4 365.4 399.5 365.4 401.1 361.3 403.3 358.9 392.7 352.1 407.7 342.1"></polygon>
            <path d="M452,179.1 L446.7,182.6 L446.2,187.2 L447,188.7 L451.2,189.5 L446.7,190.9 L443.5,193.8 L444.3,195.3 L448.4,194.9 L452,198.2 L452,179.1 Z M429.2,180.6 L432.7,175.9 L434,172.4 L438,167.7 L444.9,166.1 L447.9,163.6 L452,168.3 L452,114.2 L445.6,120.8 L444.4,123.2 L436.7,123.4 L439.1,126.6 L433.3,124 L423.5,125.4 L421.1,124.6 L416,128.3 L413.7,128.7 L407.8,145.1 L410.5,151.3 L409.8,152.2 L402.6,149.3 L402.2,149.7 L401.8,157.7 L402.2,159.6 L404.9,163.4 L404.8,168.6 L405.8,169.9 L411.5,173.9 L417.4,171.9 L423.2,175.7 L426.2,178.3 L423.8,179.2 L424.7,180.8 L429.5,180.9 L429.2,180.6 Z" id="Shape"></path>
            <polygon id="Shape" points="256.5 272.7 252.3 265.1 249.2 264.4 248.3 267.8 247.5 268.2 246.6 268.5 245.4 269 245.3 269.3 245.7 270.9 245.7 271 246 271.2 247.9 273.2 249.2 274.4 249.9 276.9 249.8 277.3 249.9 277.4 251.2 275.2 256.7 273 256.7 273"></polygon>
            <polygon id="Shape" points="379.8 336 379.6 334 382.4 331.3 383.3 327.3 379.9 323.7 377.6 324.8 377.8 325.6 375.9 329.2 376.1 331.3 374.5 340.5 374.3 341.4 376.7 340.8 377.3 340.2 379.3 336.6 379.5 336.4"></polygon>
            <path d="M181.4,363.3 L181.4,363.5 L181,365.4 L181,365.4 L185.8,365.4 L183.9,364.2 L182.6,363.9 L181.4,363.3 Z M277.7,365.4 L277.5,364.7 L269.7,362.6 L265.2,362.9 L263.5,364.4 L259.9,365.4 L277.7,365.4 Z" id="Shape"></path>
            <polygon id="Shape" points="172.7 227.8 172.6 227 172.5 226.7 172.4 226 172.4 225.8 172 226.8 172 227.5 172 227.9 172.1 227.9 172.6 227.9"></polygon>
            <path d="M240.3,146.7 L240.6,146.7 L241,146 L241.2,144.6 L240.8,145.5 L240.3,146.7 Z M240.5,139.5 L240.7,141.5 L241.9,146 L242.2,146.7 L242.2,146.7 L251.5,149.9 L251.1,152 L251.5,154.2 L251.7,154.6 L252,154.2 L255.9,156.2 L256.3,157.9 L256.3,158.1 L256.8,158.3 L263.6,156.8 L267.5,152.8 L267.9,147.6 L272.1,143.2 L271.1,139.2 L271,138.8 L270.7,138.8 L265.2,135.4 L251.6,134.8 L245.6,135.2 L240.4,139 L240.5,139.5 Z" id="Shape"></path>
            <polygon id="Shape" points="152.7 196.3 151.2 196.5 150 199.1 150.3 201.6 150.1 201.7 150.3 202.1 151.8 202.7 152.1 202.5 153.1 202.7 153.5 202.9 153.6 202.4 152.6 197.1 152.7 196.6 152.8 196.3"></polygon>
            <polygon id="Shape" points="271.5 120.3 263 118.4 259.2 117 255.5 119.5 255.5 120.3 254.7 128.1 251.2 127.8 247.2 123.3 242.4 124.1 241.3 126.6 240 137.2 240.4 139 245.6 135.2 251.6 134.8 265.2 135.4 270.7 138.8 271 138.8 271.1 138.7 273.2 136.8 274.6 136.8 278.3 132.7 278.5 132.7 278.5 132.2 274.5 125.1 274.7 123.2 272.2 120.1 271.6 120.2"></polygon>
            <polygon id="Shape" points="70.8 331.1 66.1 328.1 64.9 328.6 53.7 326.3 49.7 321.2 48.1 318.4 44.9 318.3 39.4 327 34.8 332.2 27.4 335.1 20.9 335.9 11.6 341.2 9.6 345.6 6.1 348.3 2 357.1 0.4 365.4 52.6 365.4 53.8 361.3 75.4 361.8 73.6 349.5 74.5 339.3 72.4 331.6"></polygon>
            <polygon id="Shape" points="155.7 259.1 155.7 259 155.6 258.8 155.3 259.2"></polygon>
            <polygon id="Shape" points="299 235 301.5 230.8 303.6 225.1 307.1 223.8 307.5 220.3 305.1 219.2 303.9 216 302.6 215.4 300.1 210 295.6 209.6 291 207.3 283.6 209.8 283.6 210.2 284.2 210 287.5 212.5 289.2 215.3 295.1 220.8 296 222.5 297.1 230.5 298.3 234.8 298.7 235.3"></polygon>
            <polygon id="Shape" points="262 271.7 257.9 272.7 257.1 273 256.7 273 256.7 273 251.2 275.2 249.9 277.4 249.8 277.3 249.7 277.4 249.2 280.8 253.5 286.8 253.5 287 254.5 286.8 259.4 285.4 267 280.8 267.4 280.8 267.5 280.6 267.4 278.1 267.6 277 263.5 273.1 262.2 271.8"></polygon>
            <polygon id="Shape" points="238.6 261.9 236.5 263.9 233.8 267.8 234.1 271.7 234 271.7 234 272.1 234.3 272.5 234.6 272.9 234.9 273 235.5 273.4 237.4 274.5 239.7 277.3 240.9 278 242.7 270.5 243.3 270.6 245.5 271 245.7 271 245.7 270.9 245.3 269.3 245.4 269 246.6 268.5 247.5 268.2 247.5 267.9 243.2 265.7 242.4 265.3 238.8 262 238.8 261.9"></polygon>
            <path d="M141.9,182.8 L141.4,182.4 L140.6,182.7 L137.9,181.9 L137.4,182 L141.4,183.8 L141.9,182.8 Z M150.9,189.7 L151.2,189.9 L151.5,189.9 L152.7,190.1 L153.2,188.6 L152.3,187.8 L154.7,183.1 L153.5,180.2 L158.4,179.3 L160.4,174.5 L158.7,173.6 L161,171.4 L162.4,166.2 L161.6,166 L154.8,164.5 L149.6,168 L140.3,182.1 L142.2,182.4 L147.6,182.5 L148.5,184.4 L152.1,186.4 L150.9,189.7 L150.9,189.7 Z" id="Shape"></path>
            <path d="M208.4,19.6 L208.6,12.7 L206,20.8 L207.2,22 L209.4,20.5 L208.4,19.6 Z M214.1,9.4 L212.5,13.9 L216,11.7 L214.1,9.4 Z M219.7,4.5 L219.2,2.8 L216.6,8.9 L220.2,6.8 L219.7,4.5 Z M188.9,111.7 L190.5,112 L190.5,106.4 L194.6,101.5 L195,97.2 L194,93.8 L195.8,92.4 L196.7,89.4 L193.4,85.8 L194.2,81 L194.1,73.3 L193.2,70.5 L196.3,64.1 L198.6,63 L201.8,63.6 L202.6,61.2 L200.5,58.1 L203.5,52.4 L204.6,46.4 L204.2,43.1 L207.9,41.4 L209.3,36.9 L211.3,33.1 L212.3,25.9 L213.7,24.5 L216.5,25 L217.8,19.1 L223.5,18.9 L223.6,14.3 L224.9,14 L225.4,14 L225.5,13.6 L228.6,11.4 L234.5,16.4 L237.6,14.8 L241.3,16.3 L243.2,12.7 L243,6.2 L243.8,4.2 L248.5,0.5 L253.6,3.3 L254.7,5 L254.1,9.2 L254.5,9.5 L255,9.2 L255.3,6.6 L259.4,3.3 L259,0.9 L258.5,0.9 L253.8,0 L233.9,0 L233.2,2.7 L228.9,1.6 L224.5,5.6 L225.3,9.3 L223.4,5.3 L221.6,10.5 L221.6,7.1 L219.8,7.6 L218.1,10.7 L219,11.8 L215.1,14.1 L212.4,18.2 L213.3,21.3 L210.7,21.2 L205,26.9 L208.1,31.3 L204.2,32.1 L202.1,34 L198.3,40.2 L197.9,44.2 L194.3,50.5 L191.6,54.1 L192.1,55.7 L189.1,57.9 L184.9,62.5 L182.7,66 L186,67.5 L188.7,65.7 L188.7,64.2 L191,63.5 L187.5,67.7 L184.5,69.2 L183.2,66.8 L179.5,66.4 L177.5,67.3 L178.1,69.5 L176.1,70.8 L170.9,72.3 L169.6,74.7 L174.2,74.9 L171.7,75.9 L167.6,75.4 L168.3,77.4 L161.5,79.1 L161.2,80.3 L167.2,83.2 L160.5,81.5 L161.6,85.7 L159.8,86.5 L161,89.3 L171.5,89.8 L169.1,90.4 L159.9,89.6 L159.2,93 L159.7,98 L161.6,99.1 L159,99.5 L158.3,103.4 L164.1,97.2 L161.8,101.1 L159.1,103.5 L157.7,107.4 L161.9,107.2 L159.2,113.5 L159.7,114.5 L165.8,120.1 L173.9,118.1 L180.9,111.4 L184.2,109.2 L188.9,111.4 L188.9,111.7 Z" id="Shape"></path>
            <polygon id="Shape" points="233.5 155.6 230.3 156.7 228 155.2 227 153 225 152.3 216.5 155.4 215.5 156.6 203.4 161.7 203.2 161.5 203.1 161.8 203.2 162.3 204 162.4 205.2 162.8 204.8 164.3 203.5 163.7 203.5 172.9 206.5 179.8 205.6 182.2 208.2 187.8 207 191.6 207 191.7 207.5 191.7 209.9 191.4 214.8 193.8 219.1 198.7 220.5 195.7 224.2 197 227.7 199.5 230.4 200.2 232.6 203.6 232.6 203.9 233.3 204 234.7 204.8 236.6 203 240.6 206.5 242.4 204.4 250.4 203.4 256 206 256.5 206 256.7 206 258.5 205.9 256.9 200.7 262.3 192.5 263.8 191.9 264 187.3 260.6 182.1 260.1 181.5 259.6 180.6 259.4 175.8 256.8 174.6 260.1 170.2 259.8 166.7 257.4 161.3 256.3 158.1 256.3 157.9 255.9 156.2 252 154.2 251.7 154.6 251.6 154.7 248.4 155 233.8 155.4"></polygon>
            <polygon id="Shape" points="38 254.9 37.6 261.8 33.8 269.8 28.3 276.9 25.5 282.8 26.9 285.2 30.5 287.5 28.9 289.5 26.9 296.5 24.5 299.9 27.8 299.9 32.4 302.5 36.1 301.9 36.8 302 37 298 40.4 294.7 40.3 290.1 42.8 287 43.2 284 42.5 278.3 44.9 278.9 47 276.9 46.7 274.8 49.7 268.1 49.5 266.8 55.1 263.8 51.1 257.6 44.9 256.6 43.4 253.5 39 254.1"></polygon>
            <polygon id="Shape" points="298.3 234.8 297.1 230.5 296 222.5 295.1 220.8 289.2 215.3 287.5 212.5 284.2 210 283.6 210.2 283.3 210.3 281.1 213.2 274.9 215.9 273.3 217.2 270.3 215.3 264.7 215.6 260.1 216.5 259.9 216.7 259.8 217 254.6 221.6 253.6 225.3 249.5 234.5 244.5 236.1 244.2 236.3 244.7 236.9 249.6 243.1 251 243.7 255.7 249.2 258.3 250.3 261.9 248.9 261.5 251.6 262.7 252.7 262.8 252.8 263.3 253.2 264.7 256.6 266.8 255.9 283 255.7 289.2 250.6 291.6 249.6 299 249.8 300.5 251.2 304.3 251.3 304.2 250.7 304.7 240.6 308.9 239.4 309.1 235.8 309.1 235.2 304.5 235.5 300.6 236.6 299.6 236.2 298.7 235.3"></polygon>
            <path d="M240.6,146.7 L240.3,146.7 L240.1,147.3 L237.8,150.2 L235.1,153.6 L234.6,154.5 L233.8,155.4 L248.4,155 L251.6,154.7 L251.7,154.6 L251.5,154.2 L251.1,152 L251.5,149.9 L242.2,146.7 L242.3,148.3 L238.9,149.8 L240.2,147.7 L240.6,146.7 Z M452,0 L324.3,0 L325.6,3.6 L323.3,7.3 L317.8,6.1 L316.4,0 L309,0 L311.5,8.4 L313.9,9 L318.1,18.8 L314.8,17 L309.2,17.4 L304.5,30.7 L309.7,35.9 L304.6,38.3 L300,38.3 L297.3,36.9 L294.6,37.2 L294,39.8 L297.5,43.2 L300.6,43.1 L303.1,46.9 L301.9,47.9 L296.1,48.4 L292.3,46.1 L288.6,45.4 L284.2,38.2 L283.6,32.7 L278.2,30.6 L274.3,27.4 L271.5,24 L273.6,24.1 L281.4,27.2 L285.3,27.6 L294.1,27.4 L298.1,26.6 L302.5,22.5 L304.3,15.3 L299.9,8.6 L293.8,7.3 L285.2,4 L277.3,1.6 L265.7,2.1 L263.6,0.8 L266.4,0 L261.9,0 L259.7,0.9 L259,0.9 L259.4,3.3 L255.3,6.6 L255,9.2 L254.5,9.5 L254.3,9.7 L255.4,17.6 L260.5,20.8 L261.5,22.6 L259.7,28.8 L260,29.9 L265.1,37 L266.2,46.5 L269.8,52.4 L271.2,58.9 L277.2,62.3 L278.3,70.9 L273.2,82.4 L268,91 L269.7,90.3 L274.7,93.1 L277.8,92.3 L280.5,94.6 L275.5,94.8 L274.6,96.9 L270.8,98 L271.2,100.1 L271.1,100.8 L272,101.8 L269.7,108.6 L272.1,117.4 L271.6,120 L271.6,120.2 L272.2,120.1 L274.7,123.2 L274.5,125.1 L278.5,132.2 L278.5,132.7 L279.4,133.4 L285.4,133.3 L286.5,135.6 L289.2,133.5 L294.4,135 L295.6,142.6 L297.7,143.4 L299.5,146.6 L301.8,147.9 L303.6,150.7 L309.3,152.7 L306.6,157 L302.8,156.9 L307.2,166.6 L307.3,166.8 L307.4,166.8 L309.5,166.8 L310.4,164.3 L318,161.5 L323.3,165.8 L323.8,171.1 L325.4,170.8 L334.8,177.1 L337.2,175.7 L339.8,176.2 L350,176.6 L350.9,174.9 L361.4,176.2 L363.3,175.8 L364.3,179 L362.7,181.7 L363.7,184.9 L366.7,187.9 L361.2,194.4 L358.8,198.2 L359.7,202.7 L361.2,201.3 L365.3,198.9 L365.6,201.4 L362,204.8 L362.8,206.1 L358.9,208.8 L364.5,211.5 L360.6,217.3 L361.2,219.4 L355.1,223.9 L360.2,225.2 L361,226.1 L364.5,225.9 L367.5,227.8 L371.4,227.8 L381.5,232.8 L382.4,233 L386.5,230.3 L393.6,230.9 L402.5,228.3 L409.9,230.7 L411.5,230.6 L414.4,227.4 L416.8,226.3 L423.4,226.4 L424.6,229.2 L430,229.5 L430.2,229.6 L430.9,229.4 L432.5,229.3 L437.8,232.2 L442.1,231.3 L444.2,223.3 L443.4,223 L432.4,216 L429.8,208.5 L430.3,211.3 L427.1,206.9 L422.4,205.6 L422.4,192.7 L425.1,190 L429.8,181.3 L429.5,180.9 L424.7,180.8 L423.8,179.2 L426.2,178.3 L423.2,175.7 L417.4,171.9 L411.5,173.9 L405.8,169.9 L404.8,168.6 L404.9,163.4 L402.2,159.6 L401.8,157.7 L402.2,149.7 L402.6,149.3 L409.8,152.2 L410.5,151.3 L407.8,145.1 L413.7,128.7 L416,128.3 L421.1,124.6 L423.5,125.4 L433.3,124 L439.1,126.6 L436.7,123.4 L444.4,123.2 L445.6,120.8 L452,114.2 L452,78.4 L452,74.9 L452,0 Z" id="Shape"></path>
            <polygon id="Shape" points="408.6 340.6 407.7 342.1 392.7 352.1 403.3 358.9 401.1 361.3 399.5 365.4 452 365.4 452 348.5 436.7 343 434.6 342.2 410.4 340.4"></polygon>
            <polygon id="Shape" points="235.3 238.7 235.3 238.9 236.3 243.8 238.2 244.9 236.5 248.7 236.6 249 236.9 249 237.8 252.7 241.2 256.8 239.2 261.4 238.8 261.9 238.8 262 242.4 265.3 243.2 265.7 247.5 267.9 247.5 268.2 248.3 267.8 249.2 264.4 252.3 265.1 256.5 272.7 256.7 273 257.1 273 257.9 272.7 262 271.7 262.2 271.8 262.8 271.6 262.6 266.5 264.2 265.9 263.7 261 262.6 260.5 262.6 253 262.8 252.8 262.7 252.7 261.5 251.6 261.9 248.9 258.3 250.3 255.7 249.2 251 243.7 249.6 243.1 244.7 236.9 244.2 236.3 244 236.2 238.9 236.9 236.9 238.1 235.5 238.7"></polygon>
            <polygon id="Shape" points="256 206 250.4 203.4 242.4 204.4 240.6 206.5 236.6 203 234.7 204.8 233.3 204 232.6 203.9 232.4 203.9 228.1 208.5 226.6 209.9 221.2 212.6 221.1 213.4 221 213.5 220.5 215 220.6 215.5 222.1 218.8 222.6 219.1 222.7 219.1 226.7 221.2 233 220.7 234 218.1 240.4 216.8 243.1 215 244.9 212.3 252 213.7 254.5 212.9 254.6 212.8 254.5 211.2 255.5 209.4 255.7 208.1 256.4 206.4 256.5 206"></polygon>
            <polygon id="Shape" points="218.8 233.8 217.6 231.8 217.2 230.5 216 230.5 215.6 230.7 213.8 232.1 210.2 232.8 200.3 234.1 200 234 199.8 234.6 197.9 236 199.3 239.3 200.1 243.1 199.5 243.6 199.1 243.8 210.5 244.5 210.7 241.7 213.1 240.6 213.1 237.1 218.3 233.8 218.9 234"></polygon>
            <path d="M228.4,122.7 L223.7,125.8 L224.3,129.9 L226.8,128.6 L228.4,122.7 Z M225.4,14 L224.9,14 L223.6,14.3 L223.5,18.9 L217.8,19.1 L216.5,25 L213.7,24.5 L212.3,25.9 L211.3,33.1 L209.3,36.9 L207.9,41.4 L204.2,43.1 L204.6,46.4 L203.5,52.4 L200.5,58.1 L202.6,61.2 L201.8,63.6 L198.6,63 L196.3,64.1 L193.2,70.5 L194.1,73.3 L194.2,81 L193.4,85.8 L196.7,89.4 L195.8,92.4 L194,93.8 L195,97.2 L194.6,101.5 L190.5,106.4 L190.5,112 L188.9,111.7 L188.4,111.2 L187.7,112.8 L188,117.2 L190.1,122.1 L190.2,124.6 L191.8,127.3 L193.6,132.6 L196.2,136.5 L195,139.2 L193.9,138.6 L196.1,146.6 L198.2,147.9 L203,147.4 L203.9,146.2 L203.4,142.6 L209.2,140 L212.4,139.8 L215.4,130.9 L215.8,127.4 L215.3,123.7 L215.6,117.6 L214.6,115.9 L217.2,115.4 L225,108.4 L224.7,107.8 L218.5,109.3 L217.8,108.5 L212.7,107.8 L218.8,107.1 L221.8,108.3 L226.1,104.4 L225.4,101 L221.3,97.1 L217.6,95.4 L216.8,85.5 L218.1,85.8 L217.4,77.9 L221.9,73.8 L222.7,71.1 L229,65.8 L233.8,57.6 L232.9,48.5 L235.6,43.9 L241.8,43.7 L242.8,43.3 L240.1,38.1 L240.6,33.8 L239,31.5 L236.2,21.5 L235.7,21.5 L226.4,14.4 L225.4,14 Z" id="Shape"></path>
            <polygon id="Shape" points="418 284.5 405.1 291.6 402.4 294.4 396.1 298.1 388.7 298.3 383.7 302.5 377.3 303.1 377.5 306.3 378.8 308.2 377.2 309 376.1 313.1 373.9 312.9 373.6 313.6 373.7 316.4 375.1 317.5 376.5 322.9 377.6 324.8 379.9 323.7 383.3 327.3 382.4 331.3 379.6 334 379.8 336 379.5 336.4 379.5 337 380.5 339.1 380.3 339.6 380.5 342.7 380.5 343.1 381.4 343.1 386.8 345.1 389.7 344.7 400.8 331.9 402.4 329.9 404.3 327.9 414.6 315.9 417.1 310.1 415.8 305.5 415.8 301.9 413.6 293.6 416.1 291.8 418.7 285.6 418.7 285.4"></polygon>
            <polygon id="Shape" points="180.5 362.8 177 358.8 175 359.8 172.9 358.3 171.1 351.6 178.8 343.3 178 339.5 174.2 335.4 174.5 332.6 179.4 327.5 178.1 325.6 173.2 327.3 168.3 322.4 164 323.6 161.4 325.4 159.4 325.8 156.3 329.9 157.3 331.2 156.1 336.6 156.2 343.6 154.4 348.5 149.5 352.4 148.8 355.1 154.3 365.4 181 365.4 181 365.4 181.4 363.5 181.4 363.3"></polygon>
            <path d="M373.9,312.9 L376.1,313.1 L377.2,309 L378.8,308.2 L377.5,306.3 L377.3,303.1 L383.7,302.5 L388.7,298.3 L396.1,298.1 L402.4,294.4 L405.1,291.6 L418,284.5 L418.7,285.4 L419.3,285 L420.6,282 L428.9,280.1 L435.5,278 L435.9,278.1 L435.8,277.9 L430.3,272.7 L429.5,272.9 L429.6,268.2 L428.2,267.7 L423.1,259.5 L425.1,258.6 L425.6,254.5 L427.3,255 L427.6,254.9 L427.2,254.7 L427,254.5 L426.6,254.2 L422.6,252.9 L420.3,254 L413.4,245.8 L413.1,245.5 L413.1,245.3 L406.4,243.1 L405.4,245.1 L401.1,246.8 L398.7,246.9 L398.3,248 L394.4,252.8 L388.7,256.1 L385.7,255.9 L379,260.1 L369.1,260.6 L366.6,259.6 L365,261.1 L360.7,258.1 L357.3,259.6 L353.7,258 L353.5,256.7 L338.4,262.1 L335.8,263.7 L325,273.5 L321.4,273.1 L318.4,274.2 L314,274.4 L312.4,276 L315,278.3 L318.7,278.3 L312.4,280.6 L313.2,282.9 L307.9,283.8 L303.7,283.8 L302.1,285.7 L300.5,284.6 L296.6,285.8 L293,290.4 L293.3,295.6 L298.5,293.8 L300,303.4 L296.5,304 L298.2,307.6 L299.4,307.1 L303.9,308.5 L303.8,312.2 L307.4,315.9 L305.6,318.1 L313,316.6 L307.4,320.4 L311.8,320 L319.2,318.2 L325.7,322.4 L331.7,317.4 L331.8,314.1 L337.3,313.5 L340.9,314.5 L347.8,318 L349.9,318.1 L356.5,315 L360.2,309.8 L366.8,307.7 L372.7,303.2 L373.5,303.5 L372.6,308.3 L374.2,312 L373.9,312.9 Z M291.6,273.6 L292.3,273.7 L292.4,278.2 L292.9,280.5 L291,283.5 L291.2,283.9 L296.6,283.6 L296.7,284.8 L300.9,280.7 L301.2,279.3 L306.8,277.3 L311.7,277 L306.6,273.5 L303.3,270.2 L303.3,269.1 L299.5,270 L295.8,269.9 L291.5,273.4 L291.6,273.6 Z" id="Shape"></path>
            <polygon id="Shape" points="307.3 166.8 306.2 167 301.6 171.1 302.1 175.9 299.3 175 294.4 176.7 292.5 175 290 176.3 281.9 177.1 280.9 175.9 268.3 176.3 260.2 181.4 260.1 181.5 260.6 182.1 264 187.3 263.8 191.9 262.3 192.5 256.9 200.7 258.5 205.9 256.7 206 256.5 206 256.4 206.4 255.7 208.1 255.5 209.4 254.5 211.2 254.6 212.8 255.2 212.7 256.1 214.1 257.3 214.5 259.7 216.6 259.9 216.7 260.1 216.5 264.7 215.6 270.3 215.3 273.3 217.2 274.9 215.9 281.1 213.2 283.3 210.3 283.6 210.2 283.6 209.8 291 207.3 295.6 209.6 300.1 210 302.6 215.4 303.9 216 305.1 219.2 307.5 220.3 307.1 223.8 303.6 225.1 301.5 230.8 299 235 298.7 235.3 299.6 236.2 300.6 236.6 304.5 235.5 309.1 235.2 309.1 234.3 308 230.4 311.3 228.6 313.4 224.1 313.7 221.2 320.5 218.6 318.5 213.4 322.3 218.7 318.7 220 321.9 220.5 322.4 222.1 325.7 223 330.2 220.9 333.8 222.3 327.5 229.5 335.1 230.6 335.8 235.9 340.2 236 342.1 232.5 346 230.5 348.4 226.6 353.9 225.5 352.2 222 347.8 224.8 343.3 222.2 342.7 214.8 346 211.9 351.9 209.2 355.6 204.3 359.6 202.9 359.7 202.7 358.8 198.2 361.2 194.4 366.7 187.9 363.7 184.9 362.7 181.7 364.3 179 363.3 175.8 361.4 176.2 350.9 174.9 350 176.6 339.8 176.2 337.2 175.7 334.8 177.1 325.4 170.8 323.8 171.1 323.3 165.8 318 161.5 310.4 164.3 309.5 166.8 307.4 166.8"></polygon>
            <polygon id="Shape" points="378.8 347 375.3 347.3 375.1 350.4 376.6 353.2 376.5 358.1 380.2 355.8 380.6 355.7 380.5 354.9 380.8 352.8 380.1 350.8 379.9 348.3 379.4 346.9"></polygon>
        </g>
    </g>
</svg>